<svg width="150" height="150" viewBox="0 0 150 150" fill="none" xmlns="http://www.w3.org/2000/svg">
<path d="M74.5515 14.9191C72.0458 15.6832 69.8981 16.6082 69.8981 16.8897C69.8981 17.1712 71.1254 17.5733 73.0685 17.9352C73.5799 18.0157 74.7049 18.3374 75.6254 18.6189L77.2617 19.1417L72.5572 20.2275C69.9492 20.8709 67.8526 21.5143 67.8526 21.6752C67.8526 21.8763 70.5117 22.5197 73.7333 23.1631C76.9549 23.7663 79.4606 24.4098 79.2049 24.5706C79.0004 24.6913 76.0856 25.2543 72.7106 25.7368C69.3356 26.2194 66.3697 26.7824 66.114 26.9433C65.6026 27.3454 66.0629 27.4661 74.9094 28.7931C78.8981 29.3964 82.1708 29.9996 82.1708 30.1202C82.1708 30.2811 79.5629 30.8039 76.4435 31.2864C66.4719 32.895 63.7617 33.4178 63.7617 33.7395C63.7617 33.9004 67.1367 34.2623 71.3299 34.5438C75.4719 34.7851 80.3299 35.147 82.1708 35.2677L85.4947 35.5492L81.6594 36.072C79.5629 36.3535 76.239 36.7556 74.2958 37.0371L70.7674 37.4795L72.6594 38.0023C74.8072 38.6055 76.9038 39.9325 77.3129 41.0586C77.5685 41.6216 78.489 41.7824 82.1197 42.0237C86.5174 42.3052 89.739 43.0291 86.6197 43.0291C85.8015 43.0291 83.5515 43.2301 81.6083 43.5116C78.1822 43.954 77.9776 44.0344 77.2617 45.4017C76.8526 46.1658 76.1879 47.1309 75.7276 47.4929C75.0629 48.0961 75.1651 48.1765 76.9038 48.4178C77.9776 48.5384 80.6367 48.6591 82.7844 48.6591C84.9322 48.6591 86.8242 48.8199 86.9776 49.021C87.131 49.2221 85.5969 49.5036 83.5515 49.6645C81.5572 49.8253 76.7504 50.3481 72.9663 50.8709L66.0629 51.7958L72.3526 51.836C75.7788 51.836 78.5913 51.9969 78.5913 52.1175C78.5913 52.2784 78.0799 53.0023 77.5174 53.7663C76.9038 54.5304 76.4947 55.2141 76.5969 55.2543C76.6992 55.3347 80.0231 55.6162 83.9606 55.8575C97.9208 56.7422 97.9208 56.702 86.7731 57.7476C81.3015 58.2704 76.6481 58.6725 76.4435 58.6725C76.1879 58.7127 76.0344 59.6779 76.0344 60.8441V63.0157L86.1594 63.5384C101.551 64.3025 101.909 64.4634 89.8413 65.3079C74.7049 66.3132 76.0344 65.9915 76.0344 68.8065V71.139L78.2333 71.3401C79.8697 71.5009 93.9833 72.3052 104.415 72.828C105.694 72.9084 102.267 73.2301 88.8185 74.3561C83.0401 74.8387 77.8242 75.3213 77.2106 75.4419C76.0856 75.6028 76.0344 75.8039 76.0344 78.8199V82.0371L79.0004 82.0773C80.5856 82.1175 82.3754 82.198 82.9379 82.2382C83.5004 82.2784 89.0231 82.6403 95.2106 83.0023C109.989 83.887 111.472 84.1283 104.926 84.4902C102.114 84.651 96.489 85.013 92.3981 85.2543C88.3072 85.4956 82.989 85.7771 80.5344 85.9379L76.0344 86.1792V88.8736V91.5679L87.4379 92.0505C93.6765 92.332 101.347 92.6939 104.415 92.9352C107.534 93.1363 111.523 93.2972 113.364 93.3374C118.887 93.4178 114.796 93.9808 103.904 94.7047C98.5856 95.0264 90.0969 95.6296 85.1367 95.9915L76.0344 96.635V99.1283C76.0344 102.144 76.8526 104.195 77.8754 103.874C78.4379 103.713 93.5742 104.316 99.8129 104.758C103.75 105.08 129.83 105.804 130.086 105.643C130.188 105.522 129.676 104.477 128.909 103.27C127.631 101.26 124.358 95.7905 116.688 82.8414C112.648 76.0049 107.432 67.198 102.472 58.9138C100.375 55.3749 97.0004 49.6645 94.9549 46.2462C92.9094 42.828 89.5344 37.1175 87.4379 33.5787C85.2901 30.0398 82.0174 24.45 80.0742 21.1122C78.131 17.8146 76.3413 14.9996 76.1367 14.8387C75.9322 14.6779 75.2163 14.7181 74.5515 14.9191Z" fill="black"/>
<path d="M63.5051 38.4434C61.5619 38.7249 59.1073 39.0868 58.1357 39.2476C55.6812 39.5694 57.0107 40.0519 61.4085 40.3334C64.8857 40.5747 64.988 40.5747 66.9312 39.2074C69.1301 37.6391 68.9766 37.5989 63.5051 38.4434Z" fill="black"/>
<path d="M58.9036 46.4066C57.2161 46.6479 56.0911 46.9696 56.3467 47.1305C56.6536 47.2511 59.1081 47.4924 61.8695 47.6532L66.8808 47.8945L66.0626 46.8892C65.0911 45.7229 63.9661 45.6425 58.9036 46.4066Z" fill="black"/>
<path d="M61.4606 52.0763C61.2049 52.1567 58.5459 52.4382 55.6311 52.7197C52.5629 53.0012 50.6197 53.3229 51.0288 53.4838C51.847 53.8457 64.7845 54.8108 65.1424 54.5293C65.2447 54.4489 64.989 53.8055 64.5288 53.1218C63.8129 51.9958 62.8924 51.6741 61.4606 52.0763Z" fill="black"/>
<path d="M63.7607 59.758C63.3516 59.7982 60.2834 60.0797 57.0107 60.3612C53.6868 60.6025 50.9766 60.9644 50.9766 61.1252C50.9766 61.2861 52.7152 61.5274 54.8118 61.6882C56.9084 61.8089 60.3857 62.0502 62.4822 62.1708L66.3175 62.4121V60.9644C66.3175 59.4765 66.0107 59.3558 63.7607 59.758Z" fill="black"/>
<path d="M60.4381 67.3986C59.8756 67.4388 56.9097 67.7203 53.7903 67.9616C45.9153 68.5648 43.7165 68.8061 43.921 69.0072C44.0744 69.0876 48.5233 69.4496 53.8415 69.7713C59.1597 70.093 64.0687 70.4147 64.7847 70.4951C65.9608 70.5756 66.0631 70.4147 66.2165 68.8463L66.3699 67.1573L63.9153 67.1976C62.5858 67.2378 61.0006 67.3182 60.4381 67.3986Z" fill="black"/>
<path d="M49.0849 77.5729C42.0281 78.1359 36.0963 78.7391 35.8917 78.9C35.4826 79.2217 38.3974 79.463 51.744 80.2271C57.6758 80.5488 63.3519 80.9107 64.4258 81.0313L66.3179 81.2324V78.8196V76.4067L64.1701 76.4469C62.9429 76.4871 56.1929 77.0099 49.0849 77.5729Z" fill="black"/>
<path d="M46.0173 87.8283C25.0514 89.0348 25.307 89.276 48.6764 90.2814C68.4661 91.1259 66.3184 91.2868 66.3184 88.8739V86.8632L63.6593 86.9034C62.1764 86.9436 54.2502 87.3457 46.0173 87.8283Z" fill="black"/>
<path d="M44.3802 99.0067C32.7211 99.8512 23.0563 100.655 22.9029 100.736C22.8006 100.857 22.8006 101.017 22.9029 101.098C23.1074 101.218 46.2722 102.344 59.4654 102.827L65.6529 103.068L65.9597 101.741C66.4199 99.9718 66.4199 97.8003 65.9597 97.6394C65.704 97.559 56.0392 98.1622 44.3802 99.0067Z" fill="black"/>
<path d="M31.1355 110.95C30.3685 111.312 30.2151 112.358 30.6753 113.886L31.0333 115.012H24.4367C19.5787 115.012 17.7889 115.133 17.5844 115.495C17.431 115.897 17.2264 115.897 16.6128 115.495C15.6412 114.891 13.4423 115.414 12.9821 116.379C12.5219 117.304 13.5958 117.586 14.6185 116.862C15.1298 116.5 15.6923 116.339 15.8458 116.5C16.5105 116.983 16.2037 118.109 15.181 118.832C14.056 119.637 14.2605 120.24 15.7435 120.24C16.5105 120.24 16.7151 120.521 16.7151 121.647C16.7151 122.412 16.4594 123.055 16.2037 123.055C15.7435 123.055 13.9537 121.125 13.4423 120.039C13.3401 119.798 13.0333 119.798 12.6242 120.079C11.7548 120.763 13.3912 123.377 15.0276 123.98C16.6639 124.543 17.7889 123.98 18.6071 122.21L19.2208 120.843V122.934C19.2719 124.543 19.4764 125.066 20.0389 125.066C20.6526 125.066 20.806 124.302 20.806 120.602C20.806 116.218 20.806 116.178 21.9821 116.299C23.056 116.42 23.1071 116.621 23.2605 120.763C23.3628 123.98 23.5673 125.066 24.0276 124.945C24.4367 124.865 24.6923 123.417 24.7946 120.521L24.948 116.218H27.4537C30.3685 116.218 31.0844 117.184 28.4764 117.626C26.431 117.988 26.2776 118.35 27.1469 120.039C27.8117 121.205 28.1696 121.446 29.448 121.446C31.1867 121.446 31.3912 121.728 30.3685 122.814C29.7548 123.457 29.6526 123.457 29.0389 122.894C28.1696 122.09 27.1469 122.05 26.7378 122.854C26.3798 123.578 26.8912 124.664 27.556 124.664C27.8117 124.664 28.8344 125.347 29.806 126.151C31.2378 127.398 31.6469 127.559 32.056 127.076C32.4139 126.634 32.2605 126.272 31.5446 125.709C30.6242 124.945 30.6242 124.945 31.6469 123.859C32.2605 123.216 32.5673 122.331 32.4651 121.607C32.3628 120.642 32.056 120.401 30.7776 120.32C28.2208 120.079 27.556 118.631 30.0105 118.631C31.3912 118.631 31.5446 118.511 31.5446 117.425C31.5446 116.5 31.7492 116.218 32.5673 116.218C33.7946 116.218 33.8458 115.897 32.823 114.851C31.8003 113.806 31.8003 111.795 32.823 111.795C33.2321 111.795 33.5901 111.513 33.5901 111.192C33.5901 110.548 32.2094 110.387 31.1355 110.95ZM19.2719 118.068C19.2719 119.596 19.1185 119.878 18.4026 119.757C17.8912 119.677 17.4821 119.395 17.5333 119.114C17.5844 118.873 17.6355 118.068 17.6867 117.425C17.6867 116.661 17.9935 116.218 18.5048 116.218C19.0673 116.218 19.2719 116.701 19.2719 118.068Z" fill="black"/>
<path d="M59.0055 111.312C58.4941 111.714 58.2384 112.157 58.3407 112.237C58.443 112.318 58.6475 113.001 58.8009 113.685L59.1589 115.012H52.5112C48.2669 115.012 45.8634 115.173 45.8634 115.414C45.8634 115.696 45.5566 115.696 44.8407 115.414C43.7157 114.932 42.4373 115.294 41.3123 116.379C40.7498 116.902 40.8009 117.063 41.5169 117.264C42.0794 117.465 42.5907 117.304 42.8975 116.862C43.5112 115.977 44.3294 116.42 44.3294 117.626C44.3294 118.189 43.8691 118.792 43.3066 119.033C42.1305 119.556 42.3862 120.24 43.818 120.24C44.8919 120.24 45.4032 121.044 44.9941 122.21C44.585 123.417 43.7157 123.095 42.6419 121.326C41.6703 119.838 41.0566 119.516 40.4941 120.24C39.9828 120.924 42.3862 123.859 43.6646 124.141C45.1987 124.422 46.7328 123.377 47.0396 121.889C47.1419 121.326 47.2953 121.808 47.3464 122.934C47.3975 124.543 47.6021 125.066 48.1646 125.066C48.7782 125.066 48.9316 124.302 48.9316 120.642C48.9316 116.5 48.9828 116.218 49.9544 116.218C50.8748 116.218 50.9771 116.54 51.0794 120.521C51.2328 124.261 51.335 124.865 52.1532 124.985C52.9203 125.106 53.0225 124.704 53.0225 120.682V116.218H55.5794C57.7271 116.218 58.1362 116.339 58.1362 116.983C58.1362 117.505 57.7782 117.706 56.8578 117.706C55.0169 117.706 54.8123 118.028 55.3748 119.757C55.7328 120.964 56.0907 121.285 57.2669 121.366C58.3407 121.487 58.6475 121.728 58.6475 122.492C58.6475 123.578 58.0339 123.739 57.1134 122.854C56.7555 122.532 56.193 122.251 55.835 122.251C54.3521 122.251 54.5566 124.503 56.0396 124.865C56.5509 124.985 57.4203 125.629 58.0339 126.272C58.6987 126.956 59.4146 127.479 59.6703 127.479C60.4373 127.479 60.2839 126.031 59.4146 125.468C58.7498 125.025 58.8009 124.865 59.6191 124.02C60.1305 123.537 60.5396 122.492 60.4884 121.768C60.4373 120.602 60.2328 120.441 58.9032 120.32C56.3464 120.079 55.6816 118.631 58.1362 118.631C59.5169 118.631 59.6703 118.511 59.6703 117.425C59.6703 116.5 59.8748 116.218 60.693 116.218C61.9203 116.218 61.9203 116.339 60.7441 114.449C59.6703 112.84 59.8237 111.795 60.9998 111.795C61.4089 111.795 61.7157 111.513 61.7157 111.192C61.7157 110.347 60.0282 110.428 59.0055 111.312ZM47.3975 118.068C47.3975 119.596 47.2441 119.878 46.5282 119.757C46.0169 119.677 45.6078 119.395 45.6589 119.114C45.71 118.873 45.7612 118.068 45.8123 117.425C45.8123 116.661 46.1191 116.218 46.6305 116.218C47.193 116.218 47.3975 116.701 47.3975 118.068Z" fill="black"/>
<path d="M100.374 111.635C99.9139 111.956 99.5559 112.881 99.5559 113.645V115.013H96.2321C93.6241 115.013 92.9082 115.133 92.9082 115.616C92.9082 116.018 93.4707 116.219 94.698 116.219C96.4366 116.219 96.4877 116.259 96.4877 117.828C96.4877 118.713 96.2832 119.436 95.9764 119.436C95.7207 119.436 95.465 119.155 95.465 118.833C95.465 118.23 94.1866 117.989 93.7775 118.552C93.3684 119.034 97.1014 125.066 97.8173 125.066C98.7889 125.066 98.6866 124.503 97.4593 122.573C96.2832 120.804 96.6412 120.241 98.9423 120.241C99.965 120.241 100.067 120.402 100.067 122.654C100.067 124.544 100.221 125.066 100.834 125.066C101.448 125.066 101.601 124.302 101.601 120.643V116.219H102.88H104.158V120.643C104.158 124.302 104.312 125.066 104.925 125.066C105.539 125.066 105.692 124.302 105.692 120.643C105.692 117.948 105.897 116.219 106.204 116.219C106.51 116.219 106.715 115.938 106.715 115.616C106.715 115.294 106.408 115.013 105.999 115.013C105.59 115.013 105.028 114.49 104.772 113.847C104.209 112.6 102.42 110.991 101.653 110.991C101.397 110.991 100.783 111.273 100.374 111.635ZM102.829 113.605C103.903 114.892 103.851 115.013 102.368 115.013C101.295 115.013 101.09 114.812 101.09 113.806C101.09 112.359 101.704 112.278 102.829 113.605ZM100.067 117.828C100.067 119.155 99.9139 119.436 99.0446 119.436C98.1752 119.436 98.0218 119.155 98.0218 117.828C98.0218 116.501 98.1752 116.219 99.0446 116.219C99.9139 116.219 100.067 116.501 100.067 117.828Z" fill="black"/>
<path d="M68.6193 115.415C68.4659 115.656 68.6704 115.938 69.0795 116.058C69.6932 116.26 69.8977 116.903 69.8977 118.713C69.8977 120.844 70.1022 121.407 71.6875 123.096C72.7102 124.222 73.4261 125.428 73.3238 125.951C73.2216 127.037 74.3977 127.198 75.2159 126.193C75.625 125.63 75.3182 125.026 73.5795 123.056C71.6875 120.884 71.4318 120.321 71.4318 118.391C71.4318 116.461 71.5341 116.219 72.5057 116.219C73.5284 116.219 73.5795 116.38 73.375 118.632C73.2216 120.482 73.3238 121.045 73.8352 121.045C74.7557 121.045 75.1136 120.201 75.2159 118.109C75.267 116.863 75.4716 116.38 76.1875 116.3C76.9034 116.179 77.0568 116.461 77.0568 117.989C77.0568 120.603 77.7727 121.849 79.3579 121.849C80.5341 121.849 80.6363 122.01 80.6363 123.498C80.6363 124.825 80.7897 125.107 81.5568 124.986C82.2727 124.865 82.4261 124.463 82.2727 122.613C82.2216 121.166 82.4261 120.12 82.8863 119.638C83.6022 118.873 83.6534 118.873 84.0113 119.557C84.2159 119.959 84.0625 121.005 83.7045 121.89C82.8863 123.78 83.4488 124.423 84.7784 123.096C86.7216 121.206 85.6477 117.828 83.142 117.828C82.4261 117.828 82.1704 117.587 82.2727 117.104C82.375 116.621 83.0397 116.38 84.625 116.3C86.0568 116.219 86.7727 116.018 86.6193 115.697C86.3636 115.053 69.1307 114.812 68.6193 115.415ZM80.6363 118.19C80.6363 120.241 79.5113 121.688 78.8977 120.402C78.4886 119.557 78.4886 116.823 78.9488 116.501C79.9716 115.656 80.6363 116.34 80.6363 118.19Z" fill="black"/>
<path d="M113.108 115.415C112.954 115.656 113.159 115.938 113.568 116.058C114.181 116.26 114.386 116.903 114.386 118.713C114.386 120.844 114.591 121.407 116.176 123.096C117.198 124.222 117.914 125.428 117.812 125.951C117.71 127.037 118.886 127.198 119.704 126.193C120.113 125.63 119.806 125.026 118.068 123.096C116.176 120.965 115.92 120.442 115.92 118.431C115.92 116.461 116.022 116.219 116.994 116.219C118.017 116.219 118.068 116.38 117.863 118.632C117.71 120.402 117.812 121.045 118.323 121.045C119.295 121.045 120.011 119.678 120.011 117.828V116.179L123.948 116.3C127.63 116.42 127.886 116.461 127.937 117.345C128.039 118.351 126.454 119.356 125.892 118.632C125.738 118.431 125.022 118.23 124.358 118.23C122.568 118.23 121.341 119.839 121.75 121.608C122.159 123.176 123.846 125.067 124.92 125.067C125.943 125.067 125.841 124.262 124.664 123.297C123.284 122.091 122.977 120.924 123.744 120.04C124.664 119.075 125.738 119.597 125.329 120.884C124.92 122.091 126.403 122.251 126.914 121.045C127.528 119.557 127.937 120.201 127.937 122.533C127.937 124.423 128.091 124.865 128.858 124.986C129.625 125.107 129.727 124.705 129.727 120.683C129.727 117.989 129.931 116.219 130.238 116.219C130.545 116.219 130.75 115.938 130.75 115.616C130.75 115.093 129.471 115.013 122.108 115.013C116.841 115.013 113.312 115.174 113.108 115.415Z" fill="black"/>
<path d="M12.1133 131.46C12.1133 131.661 12.5735 131.903 13.136 132.023C14.0565 132.224 14.1587 132.586 14.1587 136.487C14.1587 140.388 14.0565 140.75 13.0849 141.152C11.4996 141.836 12.2156 142.077 15.9485 142.117C18.3008 142.157 19.2724 141.996 19.2724 141.634C19.2724 141.393 18.9144 141.152 18.5053 141.152C17.8917 141.152 17.7383 140.388 17.7383 136.527C17.7383 132.667 17.8917 131.903 18.5053 131.903C18.9144 131.903 19.2724 131.701 19.2724 131.5C19.2724 131.259 17.7383 131.098 15.6928 131.098C13.7496 131.098 12.1133 131.259 12.1133 131.46Z" fill="black"/>
<path d="M39.2148 131.46C39.2148 131.661 39.6751 131.903 40.2376 132.023C41.158 132.224 41.2603 132.586 41.2603 136.648C41.2603 140.87 41.2092 141.071 40.1353 141.273C38.1921 141.675 39.5728 142.077 43.0501 142.117C45.4023 142.157 46.3739 141.996 46.3739 141.634C46.3739 141.393 46.016 141.152 45.6069 141.152C44.9933 141.152 44.8398 140.388 44.8398 136.728C44.8398 133.149 44.9933 132.224 45.6069 132.063C47.3967 131.5 46.1183 131.098 42.7944 131.098C40.8512 131.098 39.2148 131.259 39.2148 131.46Z" fill="black"/>
<path d="M63.7617 131.501C63.7617 131.702 64.1197 131.903 64.5288 131.903C65.1424 131.903 65.2958 132.667 65.2958 136.528C65.2958 140.469 65.1935 141.152 64.4776 141.152C64.0174 141.152 63.7617 141.354 63.864 141.635C64.1708 142.278 70.9208 142.319 70.9208 141.635C70.9208 141.394 70.4606 141.152 69.8981 141.152C69.0288 141.152 68.8754 140.871 68.8754 139.102C68.8754 137.051 68.8754 137.051 70.3072 137.332C71.0742 137.453 71.8924 137.855 72.0969 138.177C72.864 139.262 73.4776 138.74 73.4776 136.93C73.4776 135.643 73.2731 135.12 72.7617 135.12C72.3526 135.12 71.9435 135.402 71.739 135.724C71.5856 136.045 70.8697 136.327 70.1538 136.327C68.9265 136.327 68.8754 136.206 68.8754 134.115V131.903H70.6651C71.8924 131.903 72.9663 132.265 74.2447 133.15C75.2674 133.874 76.1879 134.316 76.3413 134.195C76.4947 134.115 76.3924 133.391 76.1367 132.667L75.7276 131.3L69.7447 131.179C65.8583 131.099 63.7617 131.219 63.7617 131.501Z" fill="black"/>
<path d="M93.5726 131.863C91.1692 133.029 90.1465 134.517 90.1465 136.728C90.1465 139.101 91.2203 140.468 93.9306 141.554C97.3056 142.921 100.936 142.479 103.34 140.388C104.567 139.342 104.004 138.779 102.675 139.704C101.192 140.75 97.8169 140.991 96.1806 140.187C91.8851 137.935 93.1635 131.903 97.9192 131.903C99.351 131.903 100.118 132.224 101.703 133.552L103.698 135.2L103.544 133.31L103.391 131.38L99.2999 131.219C95.8738 131.098 94.9533 131.179 93.5726 131.863Z" fill="black"/>
<path d="M117.965 131.501C117.965 131.662 118.323 131.904 118.732 132.064C119.346 132.225 119.499 133.15 119.499 136.729C119.499 140.389 119.346 141.153 118.732 141.153C118.323 141.153 117.965 141.394 117.965 141.635C117.965 142.038 119.499 142.158 123.846 142.158H129.777L130.289 140.59C131.005 138.539 130.493 138.257 128.908 139.866C127.783 140.952 127.272 141.153 125.328 141.153H123.078V136.528C123.078 132.668 123.232 131.904 123.846 131.904C124.255 131.904 124.613 131.743 124.613 131.501C124.613 131.3 123.13 131.139 121.289 131.139C119.448 131.18 117.965 131.3 117.965 131.501Z" fill="black"/>
</svg>
