<svg width="150" height="150" viewBox="0 0 150 150" fill="none" xmlns="http://www.w3.org/2000/svg">
<path d="M107.823 86.3374C106.988 86.9053 106.254 87.6951 105.427 87.7895C98.6909 88.5579 91.9296 88.8139 85.2018 87.7546C82.3052 87.2986 79.7292 86.111 77.7401 83.8952C77.5915 84.1248 77.4666 84.2325 77.4534 84.3508C77.1963 86.6443 75.7584 87.7654 73.3343 87.9529C67.9255 88.3711 62.5138 88.8108 57.1136 87.9183C52.5405 87.1624 48.8406 85.3971 47.7505 80.7391C47.6855 80.4614 47.4672 80.2143 47.1952 79.7307C46.6913 81.1303 46.0844 82.3301 45.8426 83.5897C45.3537 86.1357 43.5686 87.1698 41.0444 87.432C34.2068 88.1423 27.3564 88.7843 20.4755 88.0743C18.5741 87.8781 16.6627 87.4589 14.8514 86.8849C10.7193 85.5754 9.29298 82.409 11.0347 78.6764C12.4956 75.5458 15.3972 73.8222 18.696 72.9814C22.9171 71.9054 27.2822 71.2978 31.6001 70.5632C34.4483 70.0787 37.32 69.7085 40.1869 69.323C41.3133 69.1715 42.1026 68.7632 42.2921 67.6324C42.4945 66.4244 42.1522 65.3746 40.9331 64.8827C39.825 64.4356 38.5757 64.0036 37.4006 64.0295C31.7671 64.1535 26.1368 64.4196 20.5073 64.6712C18.9782 64.7395 18.7374 64.5422 19.1365 63.2294C20.103 60.0501 20.7672 59.3927 24.2781 59.1107C30.7545 58.5905 37.2512 58.138 43.7128 59.2459C45.0156 59.4693 46.3414 59.8575 47.507 60.4298C50.388 61.8442 51.7114 64.0841 50.9693 67.4602C51.5109 67.0543 51.8343 66.8974 52.0294 66.6531C55.8625 61.8518 61.2567 59.6035 67.451 58.9999C70.8961 58.6642 74.4174 58.7789 77.8881 58.9586C80.219 59.0793 81.9843 61.9345 81.1438 63.9616C80.9897 64.3331 80.0524 64.6145 79.4742 64.6184C76.2565 64.6398 73.0261 64.378 69.8222 64.555C60.9588 65.0448 56.8768 70.726 56.7714 78.5068C56.7474 80.2759 57.8877 81.4353 59.6696 81.8242C61.588 82.2429 63.5724 82.618 65.5295 82.6243C69.2195 82.6361 72.9106 82.3698 76.3985 82.2274C76.3985 80.1458 76.1167 78.249 76.4456 76.4473C78.208 66.7927 84.4138 61.0203 94.1066 59.2644C99.753 58.2415 105.437 58.3069 111.051 59.5541C113.149 60.0201 115.239 60.7033 116.358 62.6069C116.851 63.446 117.016 64.4498 117.215 65.0399C118.966 63.7702 120.756 61.9436 122.985 60.9918C125.657 59.8506 128.664 59.1118 131.598 58.8274C134.985 58.4991 138.458 58.7549 141.88 58.9528C144 59.0754 144.539 60.0896 143.818 61.9337C143.617 62.4462 143.34 62.9363 143.179 63.4579C142.837 64.5609 142.038 64.8658 140.865 64.85C137.588 64.8059 134.306 64.7466 131.033 64.8638C127.616 64.9862 125.969 66.2784 125.03 69.2975C123.24 75.0524 121.448 80.8069 119.722 86.578C119.34 87.8531 118.585 88.3838 117.196 88.3525C115.423 88.3127 113.648 88.3573 111.875 88.3328C110.017 88.307 109.744 88.015 110.24 86.3866C111.851 81.1001 113.505 75.8246 115.123 70.6057C113.288 71.6789 111.584 73.1548 109.576 73.7449C105.872 74.833 102.015 75.5417 98.1742 76.1483C93.901 76.8231 89.574 77.2077 85.3068 77.7143C84.9498 79.9948 86.2472 81.8432 88.6202 82.0783C91.8114 82.3945 95.0334 82.5531 98.2434 82.5685C101.409 82.5837 104.576 82.3312 107.744 82.2102C108.103 82.1965 108.467 82.2737 109.081 82.3331C108.658 83.7078 108.27 84.9724 107.823 86.3374ZM23.6259 76.3372C23.0752 76.526 22.505 76.6772 21.9775 76.9109C20.4884 77.5705 19.2926 79.1226 19.4913 80.27C19.7573 81.8059 21.1235 82.2161 22.5046 82.5578C22.7628 82.6217 23.0234 82.7287 23.283 82.7291C27.7164 82.736 32.1502 82.7549 36.5821 82.6787C36.9509 82.6723 37.4773 82.0588 37.6388 81.6331C38.3634 79.7234 38.9908 77.782 39.6337 75.8465C39.793 75.3667 39.8793 74.8662 40.0541 74.1502C34.4601 74.8838 29.1701 75.5775 23.6259 76.3372ZM86.6218 72.0497C86.2502 73.5304 87.4712 72.8662 87.9775 72.806C91.5377 72.3822 95.1217 72.0339 98.6287 71.3552C101.316 70.8352 103.953 69.9864 106.508 69.0437C107.668 68.6157 108.5 67.3643 107.946 66.209C107.562 65.4081 106.45 64.5168 105.545 64.3913C103.02 64.0411 100.432 63.9291 97.8742 63.9751C91.7753 64.0847 88.5056 66.4509 86.6218 72.0497Z" fill="#82C247"/>
<path d="M23.7521 76.3043C29.1692 75.5777 34.4592 74.884 40.0532 74.1504C39.8784 74.8664 39.7922 75.3669 39.6328 75.8467C38.9899 77.7822 38.3625 79.7236 37.6379 81.6333C37.4764 82.059 36.9501 82.6725 36.5812 82.6789C32.1493 82.7551 27.7155 82.7362 23.2822 82.7293C23.0225 82.7289 22.7619 82.6219 22.5037 82.558C21.1227 82.2163 19.7564 81.8061 19.4904 80.2701C19.2917 79.1227 20.4875 77.5707 21.9766 76.911C22.5041 76.6774 23.0743 76.5262 23.7521 76.3043Z" fill="#FCFEF9"/>
<path d="M86.6623 71.9372C88.5038 66.4504 91.7735 64.0843 97.8725 63.9746C100.43 63.9287 103.019 64.0407 105.543 64.3908C106.448 64.5164 107.56 65.4077 107.944 66.2086C108.499 67.3638 107.667 68.6153 106.506 69.0433C103.951 69.986 101.314 70.8347 98.6269 71.3548C95.12 72.0335 91.5359 72.3817 87.9757 72.8055C87.4694 72.8658 86.2484 73.53 86.6623 71.9372Z" fill="#FBFEF8"/>
</svg>
