<svg width="150" height="150" viewBox="0 0 150 150" fill="none" xmlns="http://www.w3.org/2000/svg">
<path d="M80.7026 46.387C77.8394 46.9488 77.332 47.2648 78.6005 47.651C79.6515 47.9671 79.724 49.1258 79.6153 58.9926C79.5066 67.3495 79.4703 67.9465 78.818 68.4029C78.1656 68.8243 78.528 68.8945 81.8623 68.8945C85.4503 68.8945 85.559 68.8594 85.0154 68.2625C84.4718 67.7007 84.3993 66.3664 84.3993 56.6751C84.3993 48.1075 84.2906 45.7198 83.9644 45.7549C83.7107 45.79 82.2247 46.0709 80.7026 46.387Z" fill="black"/>
<path d="M105.783 46.3518C104.297 46.6328 103.029 46.9137 102.957 46.9488C102.884 47.019 103.246 47.4404 103.754 47.9319L104.696 48.8449V57.6232C104.696 66.1557 104.479 68.0167 103.5 68.6136C103.246 68.7541 104.769 68.8945 106.834 68.8945C110.459 68.8945 110.567 68.8594 110.024 68.2625C109.48 67.7007 109.408 66.3664 109.408 56.6751C109.408 48.1075 109.299 45.7198 108.973 45.7549C108.719 45.79 107.269 46.0358 105.783 46.3518Z" fill="black"/>
<path d="M71.4964 47.8966C69.5756 48.7744 69.6843 51.7942 71.6776 52.2857C73.5622 52.7773 74.9757 51.8644 74.9757 50.1087C74.9757 48.3531 73.0911 47.1592 71.4964 47.8966Z" fill="black"/>
<path d="M60.1177 50.2506C58.8492 50.4613 58.8492 50.4613 58.7405 52.4627C58.6318 54.1833 58.523 54.4642 57.8344 54.6047L57.0371 54.7451L57.8707 54.8153C58.668 54.8504 58.668 54.9207 58.668 59.6258C58.668 65.2791 59.0667 67.1752 60.5526 68.369C62.401 69.8789 66.0977 69.3873 67.5111 67.421C68.3447 66.2622 68.236 66.0867 67.0037 66.6836C66.3514 66.9645 65.5178 67.105 65.0104 66.9996C63.7057 66.6836 63.307 64.8928 63.452 59.5907L63.5607 55.026L65.554 54.8153L67.5474 54.6047L65.4816 54.5695L63.3795 54.4993V52.217C63.3795 49.9346 63.3795 49.9346 62.401 49.9697C61.8211 50.0048 60.8063 50.1102 60.1177 50.2506Z" fill="black"/>
<path d="M33.0814 54.8141C32.2841 55.1653 31.2693 55.9026 30.8344 56.4645C30.2908 57.2018 30.0733 57.3072 30.0371 56.8858C30.0371 56.5698 29.5297 55.9026 28.9136 55.4111C26.9927 53.831 23.7672 54.3225 22.1 56.4996L21.3752 57.4827L21.3389 55.9729C21.3389 55.1653 21.194 54.4981 20.9765 54.4981C20.7953 54.4981 19.4181 54.7439 17.8959 55.095L15.1777 55.6568L15.8663 56.3942C16.6999 57.2721 16.7724 57.8339 16.6999 63.5222C16.6274 66.8931 16.5187 67.9114 16.0475 68.3327C15.5402 68.8594 15.8301 68.8945 19.2369 68.8945C21.3027 68.8945 22.7524 68.7541 22.4987 68.6136C21.7376 68.122 21.4477 66.4015 21.3752 62.3635C21.3027 58.8873 21.3752 58.3957 22.0638 57.553C23.0061 56.3942 24.347 56.324 25.1081 57.3774C25.543 57.9743 25.688 59.1331 25.688 62.2932C25.688 66.2962 25.3618 68.0869 24.492 68.6136C24.2383 68.7541 25.7242 68.8945 27.7901 68.8945H31.523L30.9794 68.122C30.5082 67.49 30.3995 66.2962 30.3995 62.539C30.3995 58.3606 30.472 57.6934 31.0519 57.2018C31.9579 56.3942 33.5526 56.4293 34.0237 57.2721C34.2049 57.6583 34.3862 60.1162 34.3862 62.7848C34.3862 66.7877 34.2774 67.7358 33.77 68.2625C33.2264 68.8594 33.3351 68.8945 36.9231 68.8945C40.2574 68.8945 40.6198 68.8243 39.9675 68.4029C39.3513 67.9465 39.2426 67.3144 39.0976 62.5039C38.8802 56.5347 38.5903 55.5515 36.7419 54.6737C35.2197 54.0065 34.8935 54.0065 33.0814 54.8141Z" fill="black"/>
<path d="M46.8891 54.4635C42.3588 55.6223 40.0755 59.59 41.4165 64.0143C42.3588 67.2447 45.2944 69.3164 48.8462 69.3164C52.3254 69.3164 54.7899 67.9119 56.0946 65.2433C57.3631 62.5747 56.9644 58.8176 55.1161 56.8512C53.2677 54.8498 49.6072 53.7613 46.8891 54.4635ZM50.8032 55.6925C51.0932 56.1841 51.2382 58.1855 51.2382 61.6968C51.2382 66.1913 51.1294 67.1394 50.5858 67.947C49.6797 69.3164 48.0126 69.2813 47.2515 67.8417C46.5991 66.6478 46.4542 57.6237 47.0703 56.0787C47.6864 54.4635 49.9334 54.2177 50.8032 55.6925Z" fill="black"/>
<path d="M92.1195 54.4628C90.3436 54.9192 88.604 56.0077 88.0604 57.1314C87.5167 58.2199 87.7342 58.8519 88.9664 59.6244C90.851 60.8534 92.6994 57.7283 90.851 56.4291C90.0175 55.8673 90.0175 55.8673 90.7061 55.3757C92.7356 53.901 94.9102 56.2535 94.9102 59.9755C94.9102 61.064 94.8377 61.0992 92.5182 61.661C89.8725 62.293 87.6979 63.2762 86.9731 64.1189C86.7194 64.4349 86.502 65.2425 86.502 65.9799C86.502 68.8241 90.3436 70.2637 93.0981 68.4378C93.7867 68.0165 94.3665 67.4195 94.4753 67.1386C94.6202 66.7173 94.5477 66.6822 94.1491 67.0333C92.9531 68.1569 91.2859 67.0684 91.2859 65.1723C91.2859 63.838 92.6994 62.0823 94.1128 61.6961C94.9464 61.4503 94.9464 61.4854 94.8739 64.2242C94.7652 67.2089 95.1639 68.2271 96.6136 68.8592C97.9183 69.4561 99.6941 69.3157 100.999 68.5432C102.267 67.8058 102.594 66.9631 101.47 67.3142C100.129 67.7004 99.7304 66.7173 99.5492 62.5037C99.3317 57.939 98.7518 56.2887 96.9397 55.2353C95.5625 54.3925 93.6779 54.1116 92.1195 54.4628Z" fill="black"/>
<path d="M71.1717 55.1301L68.6348 55.7271L69.5408 56.3591C70.4469 56.956 70.4469 56.9911 70.4469 62.4337C70.4469 67.4549 70.3744 67.9465 69.7583 68.4029C69.1059 68.8243 69.4683 68.8945 72.8026 68.8945C76.3906 68.8945 76.4993 68.8594 75.9557 68.2625C75.4121 67.7007 75.3396 66.6473 75.3396 61.0643V54.4981L74.5423 54.5332C74.0711 54.5332 72.5852 54.8141 71.1717 55.1301Z" fill="black"/>
<path d="M124.811 63.8036C124.63 63.8738 123.434 64.1196 122.165 64.3654C119.918 64.8219 119.882 64.8219 120.716 65.4539C121.549 66.0508 121.549 66.0508 121.549 75.6718C121.549 84.6608 121.513 85.3631 120.86 86.0654L120.172 86.8027H123.905C127.493 86.8027 127.602 86.7676 127.058 86.1707C126.514 85.6089 126.442 84.2746 126.442 74.5833C126.442 64.3654 126.406 63.628 125.826 63.6631C125.463 63.6631 125.028 63.7333 124.811 63.8036Z" fill="black"/>
<path d="M56.4209 72.4069C54.7175 72.8985 53.2316 73.9519 52.2168 75.3564C51.347 76.5854 51.2383 77.0418 51.2383 79.6051C51.2383 82.2035 51.347 82.6248 52.2893 83.924C55.0437 87.7865 61.3136 88.2781 64.7204 84.8721C66.6413 82.9057 67.2936 80.3776 66.6413 77.5685C65.6627 73.5305 60.8425 71.1077 56.4209 72.4069ZM59.6465 72.6176C60.0814 72.758 60.5888 73.2847 60.8062 73.8817C61.3499 75.3564 61.3136 84.4156 60.77 85.5392C60.0452 87.0842 57.9793 87.1544 57.1458 85.6446C56.6384 84.6614 56.3122 79.1135 56.6746 76.0938C56.8196 74.5137 57.1458 73.5305 57.6169 73.074C58.378 72.3367 58.4867 72.3367 59.6465 72.6176Z" fill="black"/>
<path d="M71.8956 72.3716C70.1197 72.793 69.2137 73.425 68.5976 74.5837C67.3653 76.8661 68.8875 79.2538 72.9466 81.501C75.991 83.1865 76.897 84.9421 75.4111 86.2062C73.7077 87.7161 70.8446 86.2764 69.1774 83.0811L68.4888 81.7117L68.4526 83.8887V86.0658L70.3372 86.6276C73.8889 87.6459 77.2595 87.084 78.8541 85.2582C79.6152 84.3803 79.7239 83.959 79.579 82.6949C79.3253 80.553 78.6367 79.7454 75.3386 77.6386C71.5332 75.2509 70.8083 74.057 72.5842 72.9334C73.8164 72.1258 75.7735 72.5823 77.1507 73.9166C77.7306 74.5135 78.238 75.1807 78.238 75.4265C78.238 75.6722 78.4192 75.9883 78.6004 76.0936C78.8179 76.2341 78.9629 75.7074 78.9629 74.7242C78.9629 73.5303 78.7816 73.0388 78.2742 72.793C77.3682 72.3014 73.2003 72.0205 71.8956 72.3716Z" fill="black"/>
<path d="M109.407 72.3006C108.537 72.4762 108.573 72.5113 109.769 72.8975C111.328 73.354 112.306 75.0745 112.306 77.2516C112.306 78.937 112.343 78.9019 108.356 79.9904C105.239 80.8331 103.971 81.8865 103.971 83.6422C103.971 85.5032 105.058 86.697 107.015 86.9779C108.791 87.2588 110.929 86.5566 111.654 85.4329C112.089 84.7307 112.125 84.7658 113.031 85.7841C114.227 87.1886 116.293 87.4695 118.105 86.5215C118.794 86.1352 119.446 85.5383 119.519 85.1872C119.627 84.6605 119.555 84.6253 119.084 84.9765C118.395 85.5383 117.417 85.152 117.199 84.204C117.127 83.8177 116.982 81.7812 116.909 79.7095C116.728 75.6364 116.257 74.3372 114.445 73.0029C113.466 72.3006 111.038 71.9846 109.407 72.3006ZM112.306 81.7109C112.306 83.5368 112.161 84.1338 111.582 84.6956C110.712 85.5383 110.204 85.5734 109.335 84.8009C108.247 83.8528 108.465 82.027 109.914 80.6224C111.835 78.7614 112.306 78.9721 112.306 81.7109Z" fill="black"/>
<path d="M80.811 72.9316C81.3546 73.2125 82.007 74.0201 82.3332 74.7575C82.6231 75.4949 83.7104 77.7421 84.6889 79.7787C85.6674 81.8153 86.8634 84.3083 87.2983 85.2915C88.5306 88.1005 89.1105 87.8196 90.5239 83.7114C92.0823 79.252 92.1186 79.0413 91.3937 80.3756L90.8138 81.5344L89.038 77.9879C87.2983 74.4415 86.9359 72.9667 87.7695 72.6507C87.987 72.5454 86.3198 72.44 84.0365 72.44C80.2311 72.44 79.9412 72.4751 80.811 72.9316Z" fill="black"/>
<path d="M90.0536 73.0375C91.3583 74.0207 92.4456 76.5489 92.2644 77.9885C92.1557 78.6908 92.1557 78.9717 92.2281 78.6205C92.3369 78.3045 92.5543 78.0236 92.6993 78.0236C92.953 78.0236 94.8013 81.6754 96.4685 85.4676C97.7007 88.3469 98.0269 87.9958 100.745 80.6922C102.63 75.6359 103.789 73.6345 105.203 72.9673C106.29 72.4406 106.218 72.4055 102.702 72.4406C99.9115 72.4406 99.2954 72.546 100.02 72.7918C101.615 73.3536 102.05 74.8985 101.361 77.4618C101.035 78.6557 100.564 80.0602 100.346 80.6571L99.9115 81.7105L98.3168 78.3748C96.3598 74.3718 96.1423 73.5994 96.7222 72.9322C97.1208 72.4757 96.6859 72.4055 93.2429 72.4055C89.4375 72.4055 89.3288 72.4406 90.0536 73.0375Z" fill="black"/>
<path d="M106.944 73.4604C105.277 74.4436 104.77 75.6375 105.567 76.7962C106.219 77.7443 107.85 77.99 108.611 77.2527C109.264 76.6206 109.119 75.0405 108.321 74.3383C107.778 73.8467 107.705 73.6009 107.995 73.2146C108.539 72.5826 108.358 72.6528 106.944 73.4604Z" fill="black"/>
<path d="M70.7011 91.9649C81.2476 92.0351 98.4264 92.0351 108.937 91.9649C119.483 91.9298 110.858 91.8947 89.837 91.8947C68.8165 91.8947 60.1908 91.9298 70.7011 91.9649Z" fill="black"/>
<path d="M38.7344 100.848C38.7344 103.201 38.8793 104.711 39.0968 104.711C39.3143 104.711 39.4592 103.201 39.4592 100.848C39.4592 98.4959 39.3143 96.986 39.0968 96.986C38.8793 96.986 38.7344 98.4959 38.7344 100.848Z" fill="black"/>
<path d="M45.4387 97.4416C45.33 97.6874 45.2938 99.4079 45.33 101.234C45.4387 104.815 46.0911 105.763 46.2723 102.603C46.4173 100.426 46.7797 99.7942 48.0119 99.7942C49.1354 99.7942 49.6066 100.742 49.6066 102.954C49.6066 104.078 49.7516 104.675 49.969 104.534C50.1865 104.429 50.3314 103.411 50.3314 102.287C50.3314 100.777 50.1502 100.11 49.6791 99.6888C48.8817 98.9865 47.3958 98.9163 46.7797 99.5132C46.4535 99.8293 46.3448 99.6537 46.3448 98.6705C46.3448 97.3362 45.7649 96.5637 45.4387 97.4416Z" fill="black"/>
<path d="M13.8727 98.2138C13.9814 98.5298 14.3438 99.7236 14.6338 100.882C15.5398 104.288 15.8298 104.85 16.4096 104.394C16.6996 104.148 17.207 102.954 17.5694 101.69C17.8956 100.426 18.2942 99.3374 18.4392 99.2672C18.5479 99.1969 18.9466 100.215 19.309 101.55C19.8889 103.656 20.7225 105.131 21.0849 104.675C21.4111 104.288 23.1869 97.9329 23.0057 97.7924C22.6433 97.4413 22.1359 98.0382 21.9185 99.1618C21.4111 101.62 20.9037 103.024 20.65 102.743C20.505 102.568 20.0701 101.339 19.7077 100.04C18.8741 96.8795 18.1855 96.9848 17.2432 100.426C16.8445 101.795 16.4096 102.954 16.2647 102.954C16.1197 102.954 15.721 101.76 15.3586 100.321C14.9237 98.4947 14.5613 97.6871 14.1989 97.6871C13.8364 97.6871 13.7277 97.8978 13.8727 98.2138Z" fill="black"/>
<path d="M41.6333 98.3542C41.6333 98.7405 41.4159 99.1267 41.1984 99.1969C40.836 99.3374 40.836 99.4427 41.1622 99.6885C41.3796 99.8641 41.6333 100.917 41.7058 102.076C41.8145 104.007 41.887 104.148 42.8293 104.394C43.9891 104.71 44.134 104.359 43.083 103.727C42.5031 103.411 42.3582 102.919 42.3582 101.55C42.3582 100.04 42.4669 99.7939 43.083 99.7939C43.4817 99.7939 43.8078 99.6183 43.8078 99.4427C43.8078 99.2321 43.4817 99.0916 43.083 99.0916C42.6119 99.0916 42.3582 98.8458 42.3582 98.3893C42.3582 98.0031 42.2132 97.6871 41.9957 97.6871C41.8145 97.6871 41.6333 98.0031 41.6333 98.3542Z" fill="black"/>
<path d="M55.4062 101.235C55.4062 103.482 55.5512 104.676 55.7687 104.536C55.9861 104.43 56.1311 103.272 56.1673 101.972L56.2036 99.6199L57.3271 102.008C58.0157 103.377 58.6681 104.325 58.958 104.29C59.2117 104.22 59.9003 103.166 60.4802 101.902L61.5312 99.6199L61.5674 101.972C61.5674 103.869 61.6762 104.36 62.1111 104.36C62.546 104.36 62.6547 103.763 62.6547 100.989C62.6547 96.8108 62.1111 96.6704 60.3352 100.427C59.6828 101.832 59.0667 103.061 58.958 103.131C58.8855 103.237 58.2331 102.043 57.5808 100.498C55.8774 96.6353 55.4062 96.7757 55.4062 101.235Z" fill="black"/>
<path d="M124.629 98.3551C124.629 98.7413 124.412 99.1275 124.194 99.1978C123.832 99.3382 123.832 99.4436 124.158 99.6894C124.376 99.8649 124.629 100.918 124.702 102.077C124.811 104.114 124.847 104.184 125.825 104.289L126.84 104.395L126.115 103.692C125.572 103.166 125.354 102.498 125.354 101.375C125.354 99.9 125.427 99.7947 126.297 99.7947C126.804 99.7947 127.13 99.6542 126.985 99.4436C126.876 99.2329 126.442 99.0924 126.043 99.0924C125.608 99.0924 125.354 98.8466 125.354 98.3902C125.354 98.0039 125.209 97.6879 124.992 97.6879C124.811 97.6879 124.629 98.0039 124.629 98.3551Z" fill="black"/>
<path d="M24.9991 100.004C23.0783 102.356 25.434 105.481 28.2609 104.358C29.2395 103.936 30.0005 102.953 29.2757 102.953C29.0945 102.953 28.5146 103.199 28.0072 103.515C27.2824 104.007 26.9199 104.042 26.2313 103.726C25.724 103.48 25.3253 103.094 25.3253 102.778C25.3253 102.356 25.7964 102.251 27.4998 102.251C29.5656 102.251 29.6744 102.216 29.6744 101.373C29.6744 99.196 26.4126 98.248 24.9991 100.004ZM28.5509 100.46C29.0582 101.338 28.7321 101.549 26.8837 101.549C25.8327 101.549 25.3253 101.408 25.3253 101.092C25.3253 99.7929 27.8985 99.2662 28.5509 100.46Z" fill="black"/>
<path d="M31.8484 99.7934C30.7249 100.882 30.8699 103.059 32.0659 103.972C33.2256 104.85 33.9505 104.885 35.0377 104.147C35.4726 103.867 35.8351 103.796 35.8351 103.972C35.8351 104.183 36.0163 104.358 36.1975 104.358C36.4149 104.358 36.5599 103.235 36.5599 101.725C36.5599 99.3721 36.1612 98.3538 35.7263 99.5125C35.5814 99.8637 35.4726 99.8637 35.074 99.5125C34.3491 98.8805 32.6457 99.0209 31.8484 99.7934ZM35.2552 100.566C35.5814 100.987 35.8351 101.619 35.8351 101.97C35.8351 102.743 34.6028 104.007 33.8417 104.007C33.0444 104.007 31.8484 102.708 31.8484 101.83C31.8484 100.004 34.2042 99.1263 35.2552 100.566Z" fill="black"/>
<path d="M64.8656 100.006C63.8508 101.27 63.887 102.78 65.0106 103.833C65.9166 104.746 66.6415 104.886 67.9099 104.395C68.3086 104.219 68.9247 104.254 69.2871 104.43C69.8308 104.711 69.9033 104.5 69.9033 101.902C69.9033 99.6546 69.7945 99.0927 69.3596 99.0927C69.0697 99.0927 68.816 99.2683 68.816 99.5141C68.816 99.8301 68.7073 99.8301 68.3811 99.5141C67.5838 98.7416 65.6629 99.0225 64.8656 100.006ZM68.2361 100.357C69.1422 101.2 68.961 102.85 67.9099 103.517C67.0764 104.044 66.9314 104.044 66.0978 103.517C65.083 102.885 64.8293 100.989 65.6267 100.216C66.2428 99.6194 67.5838 99.6897 68.2361 100.357Z" fill="black"/>
<path d="M71.7148 101.796C71.7148 103.692 71.8236 104.359 72.186 104.359C72.5484 104.359 72.6934 103.798 72.6934 102.393C72.6934 100.427 73.0558 99.7947 74.2518 99.7947C75.3753 99.7947 75.8102 100.462 75.9914 102.393C76.2089 104.886 76.7888 104.956 76.7888 102.498C76.7888 99.7595 76.1726 99.0924 73.7082 99.1626L71.7148 99.2328V101.796Z" fill="black"/>
<path d="M79.0013 100.006C78.5664 100.533 78.2402 101.235 78.2402 101.586C78.2402 103.623 80.3423 105.168 82.1182 104.395C82.8068 104.079 83.1692 104.079 83.5316 104.395C83.9665 104.746 84.039 104.325 84.039 101.937C84.039 99.6548 83.9303 99.093 83.4954 99.093C83.2054 99.093 82.9517 99.2686 82.9517 99.5144C82.9517 99.8304 82.843 99.8304 82.5168 99.5144C81.7195 98.7419 79.7987 99.0228 79.0013 100.006ZM82.2631 100.146C83.3142 100.708 83.2054 102.78 82.0457 103.517C81.2121 104.044 81.0671 104.044 80.2336 103.517C79.5812 103.096 79.3275 102.639 79.3275 101.797C79.3275 99.9709 80.5597 99.2686 82.2631 100.146Z" fill="black"/>
<path d="M86.3925 99.9698C85.4139 100.883 85.2689 101.866 85.9213 103.06C86.7549 104.64 87.8784 104.956 89.908 104.183C90.3791 104.008 90.4516 104.113 90.3066 104.78C90.1979 105.237 89.9442 105.799 89.7267 106.009C89.2194 106.641 87.4072 106.571 87.0086 105.904C86.8274 105.588 86.4649 105.377 86.2112 105.483C85.2689 105.763 87.1898 107.168 88.4945 107.168C90.7415 107.168 91.104 106.606 91.2127 102.638C91.3214 99.5835 91.2852 99.0919 90.7778 99.0919C90.4516 99.0919 90.1979 99.2675 90.1979 99.5133C90.1979 99.8293 90.0892 99.8293 89.763 99.5133C89.0381 98.811 87.3348 99.0217 86.3925 99.9698ZM89.5093 100.145C90.5603 100.707 90.4516 102.779 89.2918 103.516C88.4583 104.043 88.3133 104.043 87.4797 103.516C86.8998 103.165 86.5737 102.603 86.5737 102.041C86.5737 100.075 87.8059 99.2675 89.5093 100.145Z" fill="black"/>
<path d="M93.7134 99.6887C92.8073 100.707 92.6261 102.076 93.2422 103.235C94.0758 104.815 96.6128 105.131 97.6275 103.762C98.2799 102.919 97.7 102.779 96.5403 103.516C95.7792 103.972 95.4168 104.043 94.7282 103.727C94.2208 103.481 93.8221 103.095 93.8221 102.779C93.8221 102.357 94.2932 102.252 95.9966 102.252C98.0624 102.252 98.1712 102.217 98.1712 101.374C98.1712 99.4429 95.0543 98.249 93.7134 99.6887ZM96.8665 100.356C97.8088 101.269 97.5188 101.55 95.6342 101.55C94.402 101.55 93.8221 101.409 93.8221 101.093C93.8221 99.8642 95.8517 99.3375 96.8665 100.356Z" fill="black"/>
<path d="M99.9844 101.725C99.9844 103.235 100.129 104.359 100.347 104.359C100.564 104.359 100.709 103.516 100.709 102.498C100.709 100.496 101.144 99.7938 102.34 99.7938C103.536 99.7938 103.971 100.496 103.971 102.462C103.971 103.481 104.152 104.429 104.333 104.534C104.551 104.675 104.696 104.148 104.696 103.235C104.696 100.988 105.022 100.18 106.037 99.9343C107.342 99.6183 107.994 100.461 108.066 102.462C108.175 104.85 108.827 104.991 108.972 102.673C109.117 100.321 108.393 99.0916 106.943 99.0916C106.363 99.0916 105.602 99.3023 105.24 99.5832C104.66 99.9694 104.478 99.9694 104.044 99.5832C103.427 98.9862 101.724 98.9511 101.144 99.5129C100.818 99.829 100.709 99.829 100.709 99.5129C100.709 99.2671 100.564 99.0916 100.347 99.0916C100.129 99.0916 99.9844 100.215 99.9844 101.725Z" fill="black"/>
<path d="M111.256 100.006C110.241 101.27 110.278 102.78 111.401 103.833C112.525 104.957 113.793 104.957 115.098 103.833C116.258 102.885 115.678 102.639 114.264 103.517C113.539 104.009 113.177 104.044 112.488 103.728C111.981 103.482 111.582 103.096 111.582 102.78C111.582 102.358 112.054 102.253 113.757 102.253C115.786 102.253 115.931 102.183 115.931 101.445C115.931 99.2332 112.67 98.2501 111.256 100.006ZM114.409 100.216C115.315 101.094 114.88 101.551 113.213 101.551C112.126 101.551 111.582 101.41 111.582 101.094C111.582 100.427 112.343 99.795 113.213 99.795C113.648 99.795 114.156 99.9706 114.409 100.216Z" fill="black"/>
<path d="M117.454 101.796C117.563 104.921 118.215 105.483 118.396 102.603C118.541 100.426 118.904 99.7942 120.136 99.7942C121.223 99.7942 121.73 100.742 121.73 102.744C121.73 103.622 121.912 104.429 122.093 104.534C122.31 104.675 122.455 103.902 122.455 102.498C122.455 100.777 122.31 100.11 121.803 99.6888C121.006 98.9866 119.52 98.9163 118.904 99.5133C118.577 99.8293 118.469 99.8293 118.469 99.5133C118.469 99.2675 118.215 99.0919 117.925 99.0919C117.454 99.0919 117.381 99.5484 117.454 101.796Z" fill="black"/>
</svg>
