<svg width="150" height="150" viewBox="0 0 150 150" fill="none" xmlns="http://www.w3.org/2000/svg">
<path d="M16.8374 59.6796C16.6828 59.9845 16.5282 60.2894 16.3689 60.6036C15.4967 62.3903 14.7315 64.2259 13.9583 66.0591C13.6982 66.6754 13.4365 67.291 13.1748 67.9065C13.007 68.3031 12.8393 68.6997 12.6716 69.0963C12.5214 69.4516 12.3711 69.8068 12.2163 70.1728C11.357 72.3178 10.6322 74.4315 11.4831 76.703C12.2738 78.1304 13.242 79.0823 14.7695 79.6426C17.33 80.3212 19.9077 80.3504 22.5367 80.3728C22.9626 80.3784 23.3884 80.3844 23.8143 80.3905C24.9239 80.4059 26.0336 80.418 27.1433 80.4293C28.2801 80.4415 29.4169 80.4569 30.5537 80.472C32.776 80.5011 34.9983 80.5267 37.2206 80.55C36.4247 83.9804 33.8549 86.9257 31.0874 88.9246C27.1541 91.2862 22.1875 91.9274 17.7421 90.7961C13.0935 89.2294 9.90461 86.4946 7.53544 82.1391C5.84911 78.4226 5.46069 73.2525 6.83731 69.3598C8.54665 65.2412 11.3858 61.9572 15.1572 59.6985C15.9511 59.3772 15.9511 59.3772 16.8374 59.6796Z" fill="#039244"/>
<path d="M76.3249 69.5735C76.8061 69.9634 76.8061 69.9634 77.3969 70.5683C77.5055 70.3207 77.614 70.0731 77.7258 69.818C78.2832 69.056 78.2832 69.056 79.1451 68.9083C80.0875 68.9601 80.0875 68.9601 81.0299 69.012C81.425 69.0338 81.425 69.0338 81.8281 69.056C81.6634 72.8196 81.3492 76.5436 80.9234 80.2851C80.8677 80.7849 80.8121 81.2847 80.7566 81.7845C80.623 82.9863 80.4876 84.1878 80.351 85.3893C78.9862 85.3893 77.6214 85.3893 76.2153 85.3893C76.2153 84.8902 76.2153 84.3911 76.2153 83.8769C76.055 83.9826 75.8947 84.0883 75.7295 84.1971C75.5181 84.3348 75.3068 84.4724 75.089 84.6142C74.7755 84.8195 74.7755 84.8195 74.4555 85.0289C72.6802 86.089 70.5153 85.9079 68.5347 85.6918C66.7023 84.9621 65.2903 83.5483 64.3989 81.7597C63.4587 79.2846 63.3996 76.7159 64.4174 74.2546C65.5714 71.9649 67.2604 69.6865 69.7336 68.8504C72.2172 68.2069 74.1612 68.0428 76.3249 69.5735Z" fill="#EA0627"/>
<path d="M128.211 68.3845C130.163 68.2487 131.628 68.8379 133.231 69.9642C134.788 71.423 135.766 72.7914 136.009 74.975C136.082 78.1364 135.684 80.5461 133.556 83.0164C132.982 83.5662 132.403 84.03 131.754 84.4827C131.572 84.6098 131.39 84.7369 131.202 84.8679C129.25 86.0371 126.813 86.2619 124.608 85.8249C122.399 85.1134 120.757 83.7789 119.605 81.7392C118.626 79.5296 118.711 76.6804 119.494 74.4256C120.708 71.7632 122.444 70.1016 125.098 69.0154C126.153 68.6467 127.112 68.5093 128.211 68.3845Z" fill="#EE0223"/>
<path d="M60.2629 65.4253C62.1038 66.7628 63.2712 68.1166 64.1032 70.2648C64.1032 70.4644 64.1032 70.664 64.1032 70.8697C62.5434 71.269 60.9837 71.6682 59.3767 72.0796C58.9867 71.4807 58.5968 70.8818 58.195 70.2648C56.6816 69.1687 55.3034 68.8768 53.4685 69.0549C51.5329 69.4587 50.4153 70.4152 49.3327 72.0796C48.34 73.9093 48.1449 75.5641 48.5954 77.5878C49.0383 78.9822 49.5748 79.7382 50.8098 80.5487C52.1829 81.2517 54.0419 80.9767 55.5363 80.8512C56.8848 80.2085 57.6254 79.3553 58.4904 78.129C59.9593 78.5802 61.2727 79.2192 62.6262 79.9438C61.9839 81.8617 60.9478 83.0118 59.2843 84.0838C59.0174 84.2597 58.7505 84.4355 58.4754 84.6167C56.738 85.5521 55.0951 85.789 53.1546 85.7663C52.8527 85.7698 52.8527 85.7698 52.5447 85.7734C50.0299 85.7635 48.0356 84.798 46.1709 83.1209C44.4376 81.252 43.671 78.9019 43.5723 76.352C43.7138 72.7425 44.9883 69.5324 47.5141 66.9955C50.7334 64.2869 56.5063 63.1658 60.2629 65.4253Z" fill="#EA0627"/>
<path d="M20.0886 58.4688C20.0356 58.6677 19.9825 58.8666 19.9279 59.0716C19.7715 59.6585 19.6152 60.2454 19.459 60.8324C19.2942 61.4512 19.1289 62.07 18.9631 62.6885C18.7263 63.575 18.4933 64.4623 18.2608 65.3499C18.14 65.7985 18.14 65.7985 18.0167 66.2561C17.4118 68.5315 17.4118 68.5315 17.4299 70.87C18.0768 71.7549 18.4303 72.048 19.5051 72.2368C20.0286 72.2409 20.0286 72.2409 20.5626 72.245C20.7558 72.2481 20.949 72.2512 21.1481 72.2545C21.7843 72.2634 22.4203 72.2638 23.0566 72.2642C23.4986 72.2687 23.9407 72.2738 24.3828 72.2793C25.5444 72.2925 26.706 72.2986 27.8677 72.3032C29.0539 72.3091 30.24 72.3218 31.4261 72.3339C33.7521 72.3567 36.078 72.3713 38.404 72.3823C38.404 73.9794 38.404 75.5764 38.404 77.2218C35.6665 77.2492 32.9291 77.2714 30.1916 77.2845C28.9203 77.2908 27.6491 77.2994 26.3778 77.3131C25.15 77.3263 23.9224 77.3335 22.6945 77.3366C22.2271 77.3389 21.7596 77.3432 21.2922 77.3498C20.6353 77.3586 19.9787 77.3597 19.3218 77.3592C18.9485 77.3619 18.5752 77.3646 18.1907 77.3673C16.6138 77.1501 15.5774 76.441 14.3466 75.407C13.3858 73.5181 13.6792 71.4675 14.2603 69.4779C14.6757 68.1695 15.1327 66.8779 15.6033 65.5895C15.8999 64.7763 16.1869 63.96 16.4728 63.1428C16.6578 62.6236 16.8434 62.1045 17.0295 61.5856C17.1154 61.3421 17.2013 61.0986 17.2898 60.8477C17.9134 59.1563 18.2134 58.4688 20.0886 58.4688Z" fill="#EF0123"/>
<path d="M93.2937 69.1313C94.8653 70.4186 95.5873 71.2944 96.0078 73.2902C94.643 73.5897 93.2782 73.8891 91.872 74.1976C91.5796 73.6986 91.2871 73.1995 90.9858 72.6853C90.3823 72.5037 90.3823 72.5037 89.7488 72.5908C89.3771 72.622 89.0055 72.6532 88.6225 72.6853C88.5251 73.1844 88.4276 73.6835 88.3271 74.1976C89.3416 74.7569 90.3311 75.1937 91.4289 75.5399C93.2243 76.1362 94.7479 77.0256 95.7124 78.7347C95.9858 80.4334 95.7909 81.8377 94.8261 83.2717C93.3862 84.8631 91.8077 85.8229 89.6922 86.079C87.6384 86.158 85.5549 85.8871 83.8625 84.6187C82.7447 83.5476 82.2634 82.6737 81.8281 81.1544C82.3999 80.9511 82.9724 80.7499 83.5452 80.5495C83.8639 80.4372 84.1827 80.3249 84.511 80.2092C85.373 79.9446 85.373 79.9446 86.2593 79.9446C86.3324 80.1317 86.4055 80.3189 86.4808 80.5117C86.9403 81.3115 87.168 81.4801 88.0317 81.7594C88.8469 81.8389 89.569 81.8139 90.395 81.7594C90.59 81.5597 90.7849 81.3601 90.9858 81.1544C90.9858 80.7552 90.9858 80.3559 90.9858 79.9446C90.7787 79.8713 90.5715 79.798 90.3581 79.7224C85.065 77.8079 85.065 77.8079 83.896 76.0125C83.6325 74.3152 83.6614 72.8809 84.3945 71.3242C86.7507 68.716 89.9943 67.6299 93.2937 69.1313Z" fill="#ED0324"/>
<path d="M21.2685 58.4685C26.006 58.1827 29.7672 59.5553 33.3434 62.722C34.9987 64.2979 36.3109 66.0135 37.2206 68.1475C37.2206 68.5468 37.2206 68.946 37.2206 69.3574C35.0405 69.3714 32.8604 69.3821 30.6802 69.3887C29.6679 69.3919 28.6556 69.3962 27.6433 69.403C26.4796 69.4108 25.3159 69.4138 24.1523 69.4165C23.7885 69.4196 23.4248 69.4227 23.05 69.4259C22.7129 69.426 22.3759 69.426 22.0286 69.4261C21.7315 69.4274 21.4343 69.4287 21.1281 69.4301C20.3823 69.3574 20.3823 69.3574 19.4961 68.7524C19.8495 65.2576 20.4729 61.8854 21.2685 58.4685Z" fill="#009243"/>
<path d="M104.87 64.5176C104.87 65.915 104.87 67.3124 104.87 68.7521C105.942 68.7521 107.015 68.7521 108.12 68.7521C108.142 70.2711 108.117 71.4853 107.824 72.9867C106.654 73.0865 105.485 73.1863 104.279 73.2892C103.71 77.0575 103.71 77.0575 103.688 80.8509C104.545 81.4359 104.84 81.547 105.812 81.6449C106.369 81.701 106.369 81.701 106.938 81.7583C106.897 82.3571 106.853 82.9557 106.809 83.5542C106.785 83.8876 106.761 84.221 106.736 84.5644C106.643 85.3879 106.643 85.3879 106.347 85.6904C103.896 85.8962 101.986 85.8284 100.033 84.197C98.4463 82.1353 99.1954 78.4575 99.4693 75.9945C99.5887 74.9909 99.7155 73.9886 99.8481 72.9867C98.9708 72.9867 98.0934 72.9867 97.1895 72.9867C97.2869 71.5893 97.3844 70.1919 97.4849 68.7521C98.4597 68.7521 99.4346 68.7521 100.439 68.7521C100.536 67.754 100.634 66.7558 100.734 65.7275C101.201 65.5232 101.669 65.3222 102.138 65.1225C102.528 64.9541 102.528 64.9541 102.927 64.7822C103.688 64.5176 103.688 64.5176 104.87 64.5176Z" fill="#EB0426"/>
<path d="M110.483 68.7539C111.653 68.7539 112.823 68.7539 114.028 68.7539C114.223 69.3528 114.418 69.9517 114.619 70.5687C114.905 70.3254 115.192 70.0821 115.487 69.8315C116.717 68.9181 117.855 68.792 119.346 68.7539C119.4 71.6001 119.4 71.6001 119.05 72.9885C118.875 73.0216 118.701 73.0548 118.521 73.0889C118.17 73.1608 118.17 73.1608 117.813 73.2342C117.584 73.2798 117.354 73.3255 117.117 73.3725C115.988 73.7162 115.137 74.1152 114.525 75.177C113.772 77.3901 113.492 79.4829 113.364 81.8168C113.341 82.1624 113.318 82.5081 113.294 82.8642C113.239 83.7058 113.19 84.5477 113.142 85.3897C111.68 85.3897 110.218 85.3897 108.711 85.3897C108.914 83.1176 109.119 80.8456 109.326 78.5738C109.396 77.8005 109.465 77.027 109.535 76.2536C109.634 75.1439 109.735 74.0343 109.836 72.9247C109.867 72.5771 109.898 72.2296 109.929 71.8715C109.959 71.5506 109.988 71.2297 110.019 70.8991C110.044 70.6157 110.07 70.3322 110.096 70.0402C110.188 69.3588 110.188 69.3588 110.483 68.7539Z" fill="#EB0526"/>
<path d="M126.731 69.9622C126.731 70.2617 126.731 70.5611 126.731 70.8696C127.218 70.8696 127.706 70.8696 128.208 70.8696C128.305 71.1691 128.403 71.4685 128.503 71.7771C128.024 71.98 127.543 72.1813 127.063 72.382C126.796 72.4943 126.528 72.6066 126.253 72.7223C125.549 72.9869 125.549 72.9869 124.958 72.9869C124.934 73.1491 124.909 73.3113 124.884 73.4784C124.663 74.1968 124.663 74.1968 124.054 74.9908C123.115 76.6649 123.343 78.243 123.666 80.095C124.01 80.91 124.01 80.91 124.801 81.2079C126.161 81.5314 127.378 81.4493 128.762 81.3426C129.021 81.3255 129.281 81.3083 129.549 81.2907C130.185 81.2482 130.821 81.2013 131.457 81.1536C131.457 81.453 131.457 81.7525 131.457 82.061C131.262 82.061 131.067 82.061 130.866 82.061C130.769 82.3604 130.671 82.6599 130.571 82.9684C130.376 83.168 130.181 83.3677 129.98 83.5734C129.789 84.3509 129.789 84.3509 129.685 85.0857C127.84 85.7153 125.658 85.5021 123.777 85.0857C123.777 84.8861 123.777 84.6864 123.777 84.4808C123.384 84.5275 123.384 84.5275 122.983 84.5753C122.004 84.4808 122.004 84.4808 121.229 83.838C119.131 81.2378 118.795 79.3487 119.05 76.0116C119.417 74.1524 120.029 73.0001 121.561 71.9094C122.237 71.4908 122.772 71.1975 123.546 71.0315C123.719 70.9781 123.893 70.9247 124.072 70.8696C124.169 70.5702 124.267 70.2708 124.367 69.9622C126.066 69.622 126.066 69.622 126.731 69.9622Z" fill="#EC0325"/>
<path d="M143.274 64.5176C143.087 67.7982 142.806 71.064 142.484 74.3334C142.406 75.1228 142.33 75.9124 142.254 76.702C141.972 79.6106 141.633 82.4972 141.206 85.3879C139.841 85.3879 138.476 85.3879 137.07 85.3879C137.365 80.8556 137.764 76.3456 138.27 71.8336C138.296 71.6007 138.322 71.3679 138.349 71.1281C138.818 66.9368 138.818 66.9368 139.138 65.425C139.661 65.2723 140.184 65.1214 140.708 64.9713C140.999 64.8871 141.29 64.8028 141.59 64.7161C142.388 64.5176 142.388 64.5176 143.274 64.5176Z" fill="#EA0526"/>
<path d="M74.7384 72.6859C75.6935 73.1757 76.3223 73.8122 76.8063 74.8032C77.0235 76.9696 76.8852 78.751 75.6246 80.5501C74.3306 81.8336 72.7712 81.8834 71.0389 81.8651C69.8119 81.6887 69.3526 81.1897 68.5348 80.2476C67.8268 79.0284 67.7352 77.7039 67.944 76.3155C69.148 73.0236 71.5961 72.2999 74.7384 72.6859Z" fill="#FDF6F8"/>
<path d="M129.39 72.6854C130.609 73.3094 131.252 73.818 131.753 75.1051C131.975 76.8885 131.893 78.4387 130.867 79.9446C129.701 81.1447 128.759 81.7225 127.082 81.8351C125.881 81.8125 125.075 81.5683 124.073 80.852C123.016 79.3735 122.933 77.7813 123.186 76.0125C124.543 73.2341 126.502 72.3543 129.39 72.6854Z" fill="#FDF7F8"/>
<path d="M20.0886 58.4688C20.0356 58.6677 19.9825 58.8666 19.9279 59.0716C19.7715 59.6585 19.6152 60.2454 19.459 60.8324C19.2942 61.4512 19.1289 62.07 18.9631 62.6885C18.7263 63.575 18.4933 64.4623 18.2608 65.3499C18.14 65.7985 18.14 65.7985 18.0167 66.2561C17.4118 68.5315 17.4118 68.5315 17.4299 70.87C18.0768 71.7549 18.4303 72.048 19.5051 72.2368C20.0286 72.2409 20.0286 72.2409 20.5626 72.245C20.7558 72.2481 20.949 72.2512 21.1481 72.2545C21.7843 72.2634 22.4203 72.2638 23.0566 72.2642C23.4986 72.2687 23.9407 72.2738 24.3828 72.2793C25.5444 72.2925 26.706 72.2986 27.8677 72.3032C29.0539 72.3091 30.24 72.3218 31.4261 72.3339C33.7521 72.3567 36.078 72.3713 38.404 72.3823C38.404 73.9794 38.404 75.5764 38.404 77.2218C35.6665 77.2492 32.9291 77.2714 30.1916 77.2845C28.9203 77.2908 27.6491 77.2994 26.3778 77.3131C25.15 77.3263 23.9224 77.3335 22.6945 77.3366C22.2271 77.3389 21.7596 77.3432 21.2922 77.3498C20.6353 77.3586 19.9787 77.3597 19.3218 77.3592C18.9485 77.3619 18.5752 77.3646 18.1907 77.3673C16.6138 77.1501 15.5774 76.441 14.3466 75.407C13.3858 73.5181 13.6792 71.4675 14.2603 69.4779C14.6757 68.1695 15.1327 66.8779 15.6033 65.5895C15.8999 64.7763 16.1869 63.96 16.4728 63.1428C16.6578 62.6236 16.8434 62.1045 17.0295 61.5856C17.1154 61.3421 17.2013 61.0986 17.2898 60.8477C17.9134 59.1563 18.2134 58.4688 20.0886 58.4688ZM15.6575 69.3576C14.7081 70.0789 14.3723 70.6847 14.1989 71.853C14.0969 73.3553 14.3917 74.3749 15.0667 75.7095C15.6422 75.9715 15.6422 75.9715 16.2483 76.012C16.4433 75.9121 16.6383 75.8123 16.8391 75.7095C17.0341 76.1088 17.2291 76.508 17.4299 76.9194C24.1564 76.9194 30.8829 76.9194 37.8132 76.9194C37.8132 75.6218 37.8132 74.3242 37.8132 72.9873C36.9523 72.9759 36.9523 72.9759 36.074 72.9643C34.1756 72.9389 32.2773 72.9122 30.379 72.8846C29.2283 72.868 28.0776 72.8518 26.9268 72.8368C25.8159 72.8224 24.7049 72.8066 23.594 72.7898C23.1706 72.7836 22.7472 72.778 22.3238 72.7728C21.7298 72.7655 21.1359 72.7562 20.5419 72.7469C20.0352 72.7399 20.0352 72.7399 19.5182 72.7327C18.6919 72.689 17.9389 72.5741 17.1345 72.3823C17.1022 72.1893 17.0698 71.9963 17.0365 71.7975C16.9896 71.5476 16.9428 71.2976 16.8945 71.0401C16.85 70.791 16.8054 70.5418 16.7595 70.2851C16.6883 70.0789 16.6171 69.8726 16.5437 69.6601C16.2513 69.5603 15.9588 69.4605 15.6575 69.3576Z" fill="#DD0B2A"/>
<path d="M128.21 68.3845C130.162 68.2487 131.627 68.8379 133.229 69.9642C134.831 71.4645 135.837 72.8327 135.946 75.1026C135.942 75.5386 135.935 75.9746 135.925 76.4105C135.922 76.6345 135.92 76.8585 135.917 77.0893C135.91 77.6382 135.899 78.187 135.888 78.7358C135.791 78.7358 135.693 78.7358 135.593 78.7358C135.585 78.487 135.577 78.2383 135.57 77.982C135.461 75.7877 135.27 73.6871 134.116 71.779C133.823 71.6792 133.531 71.5793 133.229 71.4765C133.026 70.8527 133.026 70.8527 132.934 70.2666C132.642 70.2666 132.349 70.2666 132.048 70.2666C132.194 71.0152 132.194 71.0152 132.343 71.779C132.148 71.779 131.953 71.779 131.752 71.779C131.655 72.1782 131.557 72.5775 131.457 72.9889C131.847 72.9889 132.237 72.9889 132.639 72.9889C132.736 72.7892 132.834 72.5896 132.934 72.3839C133.129 72.3839 133.324 72.3839 133.525 72.3839C133.427 72.7832 133.33 73.1824 133.229 73.5938C133.034 73.5938 132.84 73.5938 132.639 73.5938C132.628 73.9038 132.617 74.2137 132.605 74.5331C132.586 74.9447 132.566 75.3562 132.546 75.7678C132.54 75.9715 132.533 76.1752 132.526 76.3851C132.457 77.7104 132.218 78.5676 131.457 79.6432C131.36 79.4435 131.262 79.2439 131.162 79.0382C131.259 78.7388 131.357 78.4393 131.457 78.1308C131.492 77.6339 131.509 77.1355 131.512 76.6374C131.517 76.3789 131.521 76.1204 131.525 75.854C131.423 74.7296 131.101 74.107 130.275 73.3669C128.72 72.7035 127.105 72.7693 125.512 73.2913C125.329 73.3911 125.146 73.491 124.958 73.5938C124.958 73.3942 124.958 73.1945 124.958 72.9889C125.844 72.3842 126.61 72.1081 127.617 71.779C127.812 71.6792 128.007 71.5793 128.207 71.4765C128.207 71.2769 128.207 71.0772 128.207 70.8716C127.86 70.8996 127.86 70.8996 127.506 70.9283C127.122 70.9002 127.122 70.9002 126.73 70.8716C126.535 70.5721 126.341 70.2727 126.14 69.9642C125.229 69.8885 125.229 69.8885 124.367 69.9642C124.367 70.4632 124.367 70.9623 124.367 71.4765C124.056 71.5139 123.746 71.5514 123.426 71.5899C122.459 71.7522 121.707 71.9722 120.822 72.3839C122.385 70.1789 124.203 69.1911 126.767 68.5085C127.249 68.4764 127.73 68.4389 128.21 68.3845Z" fill="#E70829"/>
<path d="M21.2696 58.4688C21.0208 60.7314 20.6134 62.9532 20.1981 65.1892C20.1462 65.4746 20.0942 65.7601 20.0406 66.0541C19.993 66.3112 19.9454 66.5682 19.8963 66.833C19.7634 67.6226 19.7634 67.6226 19.7925 68.7527C20.578 69.1548 21.1708 69.0914 22.0504 69.0895C22.3993 69.0895 22.7482 69.0895 23.1076 69.0894C23.6749 69.0871 23.6749 69.0871 24.2537 69.0847C24.8327 69.0841 24.8327 69.0841 25.4234 69.0834C26.4501 69.0823 27.4768 69.0793 28.5034 69.0759C29.5509 69.0728 30.5984 69.0715 31.6458 69.0699C33.7014 69.0667 35.7569 69.0615 37.8125 69.0552C37.715 69.3546 37.6175 69.6541 37.5171 69.9626C33.965 69.9788 30.4153 69.9444 26.864 69.8666C26.3027 69.8548 25.7413 69.8443 25.1799 69.835C24.3572 69.8212 23.5346 69.8037 22.712 69.7853C22.4609 69.7819 22.2099 69.7784 21.9512 69.7748C20.7943 69.7448 20.185 69.7263 19.2017 69.0552C19.1152 68.0698 19.1152 68.0698 19.1463 66.9001C19.1543 66.5125 19.1623 66.125 19.1706 65.7256C19.1808 65.427 19.1911 65.1283 19.2017 64.8206C18.9093 65.12 18.6168 65.4195 18.3155 65.728C17.8105 64.6939 18.402 63.6253 18.7217 62.571C18.791 62.3361 18.8603 62.1012 18.9317 61.8591C19.9356 58.4688 19.9356 58.4688 21.2696 58.4688Z" fill="#E4F5ED"/>
<path d="M19.793 72.3828C25.9345 72.3828 32.0761 72.3828 38.4037 72.3828C38.4037 73.9798 38.4037 75.5769 38.4037 77.2223C35.6663 77.2497 32.9289 77.2719 30.1913 77.285C28.92 77.2913 27.6488 77.2999 26.3776 77.3136C25.1498 77.3268 23.9221 77.334 22.6942 77.3371C22.2268 77.3393 21.7593 77.3437 21.2919 77.3502C20.635 77.3591 19.9785 77.3602 19.3215 77.3597C18.9482 77.3624 18.575 77.365 18.1904 77.3678C16.8802 77.1873 16.1677 76.7444 15.0664 76.0124C15.6795 75.845 16.2019 75.71 16.8389 75.71C17.1313 76.1591 17.1313 76.1591 17.4297 76.6174C18.3129 76.7624 18.3129 76.7624 19.3679 76.7482C19.6662 76.7528 19.6662 76.7528 19.9706 76.7575C20.6292 76.7666 21.2876 76.7694 21.9462 76.7722C22.4024 76.7773 22.8585 76.7827 23.3147 76.7886C24.5161 76.803 25.7176 76.812 26.9191 76.8199C28.1448 76.8289 29.3705 76.843 30.5962 76.8566C33.0017 76.8827 35.4073 76.9026 37.8129 76.9198C37.8129 75.5224 37.8129 74.125 37.8129 72.6853C31.8663 72.6853 25.9197 72.6853 19.793 72.6853C19.793 72.5855 19.793 72.4857 19.793 72.3828Z" fill="#C7293F"/>
<path d="M89.7668 72.2891C90.8977 72.2994 90.8977 72.2994 91.5762 72.9507C91.8716 73.5935 91.8716 73.5935 91.8716 74.1984C92.0498 74.1329 92.228 74.0674 92.4116 73.9999C92.7658 73.8736 92.7658 73.8736 93.1271 73.7447C93.3601 73.6605 93.5932 73.5763 93.8333 73.4895C94.5303 73.291 94.5303 73.291 95.7119 73.291C95.7119 73.4906 95.7119 73.6903 95.7119 73.8959C95.5169 73.8959 95.3219 73.8959 95.1211 73.8959C95.1211 74.0956 95.1211 74.2952 95.1211 74.5009C94.4387 74.5009 93.7563 74.5009 93.0532 74.5009C92.8582 74.9001 92.6633 75.2994 92.4624 75.7107C91.9448 75.6331 91.428 75.5501 90.9115 75.465C90.6236 75.4194 90.3357 75.3738 90.0391 75.3268C89.1765 75.0961 88.6983 74.7919 88.0312 74.1984C88.3454 72.4064 88.3454 72.4064 89.7668 72.2891Z" fill="#FDDEE3"/>
<path d="M118.754 69.3586C119.086 71.3625 119.086 71.3625 118.754 72.3833C118.461 72.2835 118.169 72.1837 117.868 72.0808C117.77 71.8812 117.673 71.6816 117.572 71.4759C117.28 71.8752 116.987 72.2744 116.686 72.6858C116.296 72.4861 115.906 72.2865 115.504 72.0808C115.504 71.8812 115.504 71.6816 115.504 71.4759C114.813 72.1195 114.409 72.7208 114.027 73.5932C113.93 73.3936 113.832 73.1939 113.732 72.9882C113.537 72.9882 113.342 72.9882 113.141 72.9882C113.044 72.2895 112.946 71.5908 112.846 70.871C113.138 70.871 113.431 70.871 113.732 70.871C113.732 71.0706 113.732 71.2702 113.732 71.4759C113.946 71.3231 114.16 71.1702 114.38 71.0127C114.666 70.8162 114.952 70.6197 115.246 70.4173C115.527 70.2207 115.808 70.0242 116.098 69.8218C117.073 69.3106 117.674 69.2668 118.754 69.3586Z" fill="#EF0123"/>
<path d="M19.7915 66.0312C19.889 66.0312 19.9865 66.0312 20.0869 66.0312C20.1844 66.8298 20.2819 67.6283 20.3823 68.451C25.744 68.5508 31.1057 68.6506 36.6298 68.7535C36.7273 68.454 36.8248 68.1546 36.9252 67.8461C37.0715 68.5947 37.0715 68.5947 37.2206 69.3584C35.0405 69.3724 32.8604 69.3832 30.6802 69.3898C29.6679 69.3929 28.6556 69.3972 27.6433 69.404C26.4796 69.4119 25.3159 69.4148 24.1523 69.4175C23.7885 69.4206 23.4248 69.4237 23.05 69.4269C22.7129 69.427 22.3759 69.427 22.0286 69.4271C21.7315 69.4284 21.4343 69.4298 21.1281 69.4312C20.3823 69.3584 20.3823 69.3584 19.4961 68.7535C19.5936 67.8551 19.6911 66.9568 19.7915 66.0312Z" fill="#288F59"/>
<path d="M16.5425 59.6797C16.64 59.6797 16.7374 59.6797 16.8379 59.6797C16.8318 60.0166 16.8257 60.3534 16.8194 60.7005C16.7599 61.7462 16.7599 61.7462 17.1333 62.4019C16.977 63.0259 16.977 63.0259 16.7098 63.7843C16.6155 64.0553 16.5213 64.3263 16.4242 64.6054C16.3231 64.8889 16.222 65.1724 16.1178 65.4644C16.0179 65.7502 15.9179 66.036 15.8149 66.3305C15.5671 67.0382 15.3172 67.745 15.0654 68.4513C14.9679 68.4513 14.8705 68.4513 14.77 68.4513C14.8675 67.6528 14.965 66.8543 15.0654 66.0315C14.8705 66.0315 14.6755 66.0315 14.4746 66.0315C14.4441 66.2249 14.4137 66.4183 14.3823 66.6176C14.3153 66.8234 14.2482 67.0293 14.1792 67.2414C13.8867 67.3412 13.5943 67.441 13.293 67.5439C14.1009 64.8783 15.0236 62.0124 16.5425 59.6797Z" fill="#F1EFEE"/>
<path d="M86.2593 79.9453C86.3567 80.2448 86.4542 80.5442 86.5547 80.8527C86.2622 80.7529 85.9698 80.6531 85.6684 80.5503C84.6638 81.0852 84.0355 81.4426 83.5637 82.5163C83.5456 83.2898 83.5456 83.2898 83.9698 83.9341C86.226 85.4567 89.2774 85.1633 91.872 85.0873C91.5766 85.6922 91.5766 85.6922 91.0527 85.8765C88.8173 86.2781 86.5476 86.0911 84.4868 85.0873C83.0115 83.9816 82.3436 82.9543 81.8281 81.1552C82.3999 80.9519 82.9724 80.7506 83.5452 80.5503C83.8639 80.438 84.1827 80.3257 84.511 80.21C85.373 79.9453 85.373 79.9453 86.2593 79.9453Z" fill="#D91130"/>
<path d="M126.731 69.9622C126.731 70.2617 126.731 70.5611 126.731 70.8696C127.219 70.8696 127.706 70.8696 128.208 70.8696C128.306 71.1691 128.403 71.4685 128.504 71.7771C128.024 71.98 127.544 72.1813 127.064 72.382C126.796 72.4943 126.529 72.6066 126.254 72.7223C125.55 72.9869 125.55 72.9869 124.959 72.9869C124.959 73.1866 124.959 73.3862 124.959 73.5919C124.569 73.5919 124.179 73.5919 123.777 73.5919C123.777 73.0928 123.777 72.5937 123.777 72.0795C123.972 72.0795 124.167 72.0795 124.368 72.0795C124.313 71.8986 124.258 71.7177 124.202 71.5313C124.073 70.8696 124.073 70.8696 124.368 69.9622C126.067 69.622 126.067 69.622 126.731 69.9622Z" fill="#F00122"/>
<path d="M13.8848 79.3398C14.2525 79.4354 14.2525 79.4354 14.6276 79.5329C17.3217 80.1848 19.8566 80.3892 22.6247 80.402C23.0493 80.4071 23.4739 80.4126 23.8985 80.4185C25.0009 80.4327 26.1032 80.4418 27.2056 80.4498C28.3366 80.4589 29.4675 80.4729 30.5985 80.4865C32.8063 80.5123 35.0142 80.5328 37.2221 80.5497C37.1246 80.949 37.0271 81.3482 36.9267 81.7596C36.7805 81.3104 36.7805 81.3104 36.6313 80.8522C34.2534 80.8777 31.8756 80.9064 29.4978 80.9392C28.3938 80.9543 27.2897 80.9683 26.1856 80.9798C25.1206 80.9909 24.0557 81.0049 22.9908 81.021C22.584 81.0266 22.1771 81.0312 21.7703 81.0347C21.2016 81.0398 20.6329 81.0489 20.0643 81.0582C19.7402 81.0622 19.4162 81.0663 19.0823 81.0704C18.2683 81.0769 18.2683 81.0769 17.7251 81.7596C17.3351 81.7596 16.9452 81.7596 16.5434 81.7596C16.446 81.4602 16.3485 81.1607 16.248 80.8522C15.697 80.5444 15.697 80.5444 15.0479 80.3418C14.8313 80.2657 14.6146 80.1897 14.3913 80.1114C14.2242 80.0564 14.057 80.0014 13.8848 79.9448C13.8848 79.7452 13.8848 79.5455 13.8848 79.3398Z" fill="#178C4E"/>
<path d="M134.115 81.1543C134.31 81.2541 134.505 81.3539 134.706 81.4568C132.979 83.7238 131.315 85.3066 128.495 85.8697C126.417 86.1082 124.546 86.098 122.742 84.8974C122.596 84.7601 122.449 84.6229 122.299 84.4815C122.786 84.4815 123.274 84.4815 123.776 84.4815C123.776 84.6811 123.776 84.8807 123.776 85.0864C125.726 85.0864 127.675 85.0864 129.684 85.0864C129.684 84.5873 129.684 84.0882 129.684 83.574C130.813 83.1438 131.726 82.8964 132.934 82.9691C132.934 82.6697 132.934 82.3702 132.934 82.0617C133.129 82.0617 133.323 82.0617 133.524 82.0617C133.524 81.8621 133.524 81.6624 133.524 81.4568C133.719 81.357 133.914 81.2571 134.115 81.1543Z" fill="#DB1B39"/>
<path d="M142.683 69.0547C142.781 69.0547 142.878 69.0547 142.978 69.0547C142.978 71.1508 142.978 73.2469 142.978 75.4065C142.784 75.4065 142.589 75.4065 142.388 75.4065C142.39 75.6653 142.39 75.6653 142.392 75.9293C142.398 76.7066 142.402 77.4838 142.406 78.2611C142.409 78.5327 142.411 78.8042 142.414 79.084C142.415 79.4715 142.415 79.4715 142.417 79.8668C142.418 80.106 142.42 80.3451 142.421 80.5916C142.388 81.1535 142.388 81.1535 142.092 81.4559C142.083 82.524 142.113 83.589 142.14 84.6567C142.096 85.6186 142.001 86.1043 141.501 86.9004C141.306 86.8006 141.112 86.7007 140.911 86.5979C140.911 86.2985 140.911 85.999 140.911 85.6905C139.643 85.6905 138.376 85.6905 137.07 85.6905C137.07 85.5907 137.07 85.4909 137.07 85.388C138.435 85.388 139.8 85.388 141.206 85.388C141.198 85.0652 141.189 84.7423 141.181 84.4097C141.181 82.6786 141.405 80.9787 141.612 79.263C141.694 78.566 141.775 77.8689 141.856 77.1717C141.896 76.8258 141.936 76.4798 141.977 76.1234C142.243 73.7704 142.462 71.4124 142.683 69.0547Z" fill="#FDC6CF"/>
<path d="M16.8384 59.6797C16.6678 60.0228 16.4972 60.3659 16.3214 60.7194C15.6619 62.0675 15.0626 63.4394 14.4751 64.8217C14.3776 64.8217 14.2801 64.8217 14.1797 64.8217C14.0822 64.0232 13.9847 63.2246 13.8843 62.4019C13.5918 62.5017 13.2994 62.6015 12.998 62.7044C12.998 62.5048 12.998 62.3051 12.998 62.0994C12.6081 62.1993 12.2182 62.2991 11.8164 62.4019C13.0255 61.0042 14.9404 59.0319 16.8384 59.6797Z" fill="#189153"/>
<path d="M21.2695 58.4695C24.0629 58.3009 26.3254 58.6941 28.9502 59.6793C28.7552 59.879 28.5602 60.0786 28.3593 60.2843C27.3427 60.1775 26.862 59.9679 25.9961 59.3769C25.0729 59.3264 25.0729 59.3264 24.2236 59.3769C24.1261 59.5765 24.0286 59.7761 23.9282 59.9818C23.9282 59.6824 23.9282 59.3829 23.9282 59.0744C23.1978 59.1786 23.1978 59.1786 22.4512 59.3769C22.3537 59.5765 22.2562 59.7761 22.1558 59.9818C21.8633 59.9818 21.5708 59.9818 21.2695 59.9818C21.2878 60.4123 21.2878 60.4123 21.3065 60.8514C21.3065 62.2945 21.0967 63.7448 20.6787 65.1238C20.4837 65.2236 20.2888 65.3234 20.0879 65.4263C20.322 63.0767 20.8025 60.7794 21.2695 58.4695Z" fill="#1B8E51"/>
<path d="M100.734 65.7285C100.832 65.7285 100.929 65.7285 101.03 65.7285C101.03 66.8265 101.03 67.9244 101.03 69.0557C100.08 69.5418 99.1285 69.3755 98.0757 69.3581C98.0757 70.2565 98.0757 71.1548 98.0757 72.0804C98.4108 72.124 98.7459 72.1677 99.0911 72.2127C100.144 72.3828 100.144 72.3828 100.439 72.6853C100.481 73.4931 100.452 74.2957 100.439 75.1051C100.244 75.1051 100.049 75.1051 99.8481 75.1051C99.8481 74.4064 99.8481 73.7077 99.8481 72.9878C98.9708 72.9878 98.0934 72.9878 97.1895 72.9878C97.2869 71.5904 97.3844 70.193 97.4849 68.7532C98.4597 68.7532 99.4346 68.7532 100.439 68.7532C100.536 67.7551 100.634 66.7569 100.734 65.7285Z" fill="#D82B47"/>
<path d="M50.2187 67.8457C50.4137 67.9455 50.6087 68.0453 50.8096 68.1482C50.8096 68.3478 50.8096 68.5474 50.8096 68.7531C52.0922 68.6973 52.0922 68.6973 53.1728 68.1482C53.6216 68.1265 54.0714 68.1228 54.5206 68.1293C54.7647 68.132 55.0088 68.1347 55.2603 68.1375C55.4488 68.141 55.6373 68.1446 55.8315 68.1482C55.8315 68.3478 55.8315 68.5474 55.8315 68.7531C55.5962 68.7827 55.3609 68.8124 55.1184 68.8429C52.3882 69.2374 50.9439 70.0131 49.0371 72.0803C49.0371 70.8704 49.0371 69.6605 49.0371 68.4506C49.591 68.1293 49.591 68.1293 50.2187 67.8457Z" fill="#E40A2B"/>
<path d="M114.028 75.709C114.423 76.8836 114.303 78.0282 114.213 79.2441C114.2 79.4525 114.187 79.6609 114.174 79.8756C114.067 81.4161 114.067 81.4161 113.733 81.7584C113.711 82.4701 113.708 83.1825 113.714 83.8946C113.717 84.2848 113.72 84.6751 113.723 85.0773C113.726 85.3794 113.729 85.6816 113.733 85.9929C113.161 86.1631 113.161 86.1631 112.551 86.2954C112.454 86.1956 112.356 86.0958 112.256 85.9929C111.66 85.9221 111.063 85.8679 110.465 85.8228C110.139 85.7975 109.812 85.7721 109.476 85.746C109.224 85.7277 108.971 85.7093 108.711 85.6905C108.711 85.5907 108.711 85.4908 108.711 85.388C110.173 85.388 111.635 85.388 113.142 85.388C113.13 84.7829 113.118 84.1777 113.105 83.5543C113.103 80.9544 113.221 78.1886 114.028 75.709Z" fill="#FCCBD7"/>
<path d="M97.1895 72.9863C98.0668 72.9863 98.9442 72.9863 99.8481 72.9863C99.8562 73.503 99.8619 74.0197 99.8666 74.5365C99.87 74.8242 99.8735 75.112 99.877 75.4084C99.8481 76.3135 99.8481 76.3135 99.7027 77.2008C99.3271 79.5232 99.1746 82.2976 100.144 84.4802C100.73 84.9331 100.73 84.9331 101.325 85.0851C100.74 84.9853 100.155 84.8855 99.5527 84.7826C98.7624 82.664 98.8963 80.5392 98.925 78.2984C98.9276 77.9041 98.9303 77.5097 98.9331 77.1033C98.94 76.1342 98.9497 75.1652 98.9619 74.1962C99.1569 74.1962 99.3518 74.1962 99.5527 74.1962C99.4552 73.9966 99.3578 73.7969 99.2573 73.5913C98.5715 73.4681 97.8816 73.3661 97.1895 73.2888C97.1895 73.189 97.1895 73.0892 97.1895 72.9863Z" fill="#FEDBE2"/>
<path d="M90.9853 72.9873C91.1803 73.5862 91.3753 74.185 91.5762 74.8021C90.3939 75.2863 89.4948 74.8906 88.3267 74.4996C88.2292 74.0005 88.1317 73.5015 88.0312 72.9873C89.1225 72.6148 89.8644 72.7924 90.9853 72.9873Z" fill="#FDF5F6"/>
<path d="M105.084 72.959C105.572 72.9642 105.572 72.9642 106.07 72.9696C106.56 72.9737 106.56 72.9737 107.059 72.9779C107.312 72.9814 107.564 72.9849 107.824 72.9885C107.824 73.1882 107.824 73.3878 107.824 73.5935C106.752 73.5935 105.68 73.5935 104.575 73.5935C104.584 73.9397 104.593 74.2859 104.602 74.6427C104.602 75.9976 104.397 77.2606 104.132 78.5842C104.089 78.8041 104.047 79.024 104.004 79.2506C103.9 79.785 103.795 80.3189 103.688 80.8527C103.591 80.8527 103.494 80.8527 103.393 80.8527C103.331 79.0596 103.456 77.3366 103.67 75.5595C103.696 75.3421 103.721 75.1248 103.748 74.9008C103.988 72.9992 103.988 72.9992 105.084 72.959Z" fill="#FECED9"/>
<path d="M118.163 68.4512C118.651 68.4512 119.138 68.4512 119.64 68.4512C119.648 69.0939 119.654 69.7367 119.659 70.3794C119.662 70.7373 119.665 71.0953 119.669 71.464C119.64 72.3833 119.64 72.3833 119.345 72.9882C119.735 72.8884 120.125 72.7886 120.526 72.6857C120.136 73.7837 119.746 74.8817 119.345 76.0129C119.071 74.8933 119.025 74.6111 119.345 73.5931C118.76 73.8926 118.76 73.8926 118.163 74.1981C118.163 73.9985 118.163 73.7988 118.163 73.5931C117.578 73.5931 116.993 73.5931 116.391 73.5931C116.586 73.3935 116.781 73.1939 116.981 72.9882C117.664 72.9882 118.346 72.9882 119.049 72.9882C119.147 71.5908 119.244 70.1934 119.345 68.7536C118.955 68.6538 118.565 68.554 118.163 68.4512Z" fill="#FCCAD3"/>
<path d="M89.6204 71.7033C90.0534 71.6916 90.0534 71.6916 90.4951 71.6797C91.2821 71.7789 91.2821 71.7789 91.8291 72.2374C91.941 72.3855 92.053 72.5337 92.1683 72.6863C92.0709 72.9858 91.9734 73.2852 91.8729 73.5937C91.7754 73.444 91.678 73.2943 91.5775 73.14C90.6394 72.4196 89.7748 72.6284 88.6234 72.6863C88.5259 73.1854 88.4285 73.6845 88.328 74.1987C88.9129 74.4981 89.4978 74.7976 90.1005 75.1061C90.1005 75.2059 90.1005 75.3057 90.1005 75.4086C89.1526 75.5164 88.7298 75.4802 87.9218 74.936C87.4418 74.1987 87.4418 74.1987 87.4972 73.0833C87.8629 71.5567 88.1634 71.7268 89.6204 71.7033Z" fill="#D91332"/>
<path d="M90.9863 75.4062C92.9436 75.9788 94.6691 76.8837 95.7129 78.7334C95.8379 79.6552 95.8645 80.5365 95.7129 81.4556C95.5179 81.6553 95.3229 81.8549 95.1221 82.0606C95.0246 80.9626 94.9271 79.8646 94.8266 78.7334C94.5342 78.6336 94.2417 78.5338 93.9404 78.4309C93.4419 78.015 93.4419 78.015 93.0542 77.5235C93.0542 77.2241 93.0542 76.9246 93.0542 76.6161C92.3718 76.4165 91.6894 76.2169 90.9863 76.0112C90.9863 75.8116 90.9863 75.6119 90.9863 75.4062Z" fill="#D81F3D"/>
<path d="M104.87 64.5176C104.87 65.915 104.87 67.3124 104.87 68.7521C105.942 68.7521 107.014 68.7521 108.119 68.7521C108.119 68.852 108.119 68.9518 108.119 69.0546C106.949 69.0546 105.779 69.0546 104.574 69.0546C104.574 67.757 104.574 66.4594 104.574 65.1225C104.379 65.1225 104.184 65.1225 103.983 65.1225C103.886 65.3221 103.788 65.5218 103.688 65.7275C103.398 66.0358 103.104 66.3392 102.802 66.6349C102.607 66.535 102.412 66.4352 102.211 66.3324C102.211 66.1328 102.211 65.9331 102.211 65.7275C101.821 65.6276 101.431 65.5278 101.029 65.425C101.447 65.2715 101.866 65.1208 102.285 64.9713C102.518 64.8871 102.751 64.8028 102.991 64.7161C103.688 64.5176 103.688 64.5176 104.87 64.5176Z" fill="#E03652"/>
<path d="M61.4453 66.9375C62.5246 67.372 62.9046 67.8626 63.4393 68.9035C63.5658 69.1437 63.6922 69.3839 63.8224 69.6314C64.104 70.2647 64.104 70.2647 64.104 70.8696C63.4216 70.9694 62.7392 71.0692 62.0361 71.1721C62.1336 70.8726 62.2311 70.5732 62.3315 70.2647C62.1502 69.6546 61.9517 69.0498 61.7407 68.4498C61.6341 67.9475 61.5326 67.4438 61.4453 66.9375Z" fill="#E00B2D"/>
<path d="M143.274 64.5176C143.232 65.2297 143.189 65.9417 143.145 66.6538C143.121 67.0503 143.097 67.4468 143.072 67.8554C142.985 68.975 142.851 70.063 142.684 71.1719C142.586 71.1719 142.489 71.1719 142.388 71.1719C142.38 70.504 142.374 69.836 142.37 69.168C142.366 68.7961 142.363 68.4241 142.359 68.0409C142.386 67.035 142.495 66.1084 142.684 65.1225C142.483 65.2161 142.281 65.3097 142.074 65.4061C141.097 65.7679 140.168 65.9059 139.139 66.0299C139.139 65.8303 139.139 65.6307 139.139 65.425C139.661 65.2723 140.185 65.1214 140.708 64.9713C140.999 64.8871 141.291 64.8028 141.591 64.7161C142.388 64.5176 142.388 64.5176 143.274 64.5176Z" fill="#D21C3B"/>
<path d="M74.7392 83.875C74.9342 84.0746 75.1292 84.2743 75.3301 84.4799C73.1913 85.91 71.0494 86.0097 68.5356 85.6898C67.6621 85.2278 67.6621 85.2278 67.0586 84.7824C67.4485 84.6826 67.8385 84.5828 68.2402 84.4799C68.2402 84.6796 68.2402 84.8792 68.2402 85.0849C69.7515 85.1431 69.7515 85.1431 71.2312 84.9147C72.0461 84.7201 72.7482 84.9154 73.5576 85.0849C73.5576 84.8852 73.5576 84.6856 73.5576 84.4799C73.9475 84.4799 74.3375 84.4799 74.7392 84.4799C74.7392 84.2803 74.7392 84.0807 74.7392 83.875Z" fill="#D51431"/>
<path d="M142.092 72.9863C142.189 72.9863 142.287 72.9863 142.387 72.9863C142.185 76.3252 141.857 79.6432 141.501 82.9678C141.403 82.9678 141.306 82.9678 141.205 82.9678C141.197 81.9659 141.192 80.964 141.187 79.962C141.184 79.676 141.182 79.39 141.179 79.0954C141.178 78.8234 141.178 78.5515 141.177 78.2713C141.175 78.0194 141.173 77.7676 141.172 77.5081C141.205 76.9184 141.205 76.9184 141.501 76.616C141.618 76.0071 141.72 75.3952 141.815 74.7822C141.893 74.281 141.893 74.281 141.973 73.7697C142.012 73.5112 142.051 73.2527 142.092 72.9863Z" fill="#D11D37"/>
<path d="M132.049 69.3574C133.865 70.4817 135.246 71.7455 135.889 73.8945C135.93 74.7444 135.945 75.5611 135.926 76.4087C135.923 76.6327 135.921 76.8567 135.918 77.0875C135.911 77.6364 135.9 78.1852 135.889 78.734C135.792 78.734 135.694 78.734 135.594 78.734C135.582 78.3608 135.582 78.3608 135.571 77.9802C135.462 75.7859 135.271 73.6853 134.117 71.7772C133.824 71.6774 133.532 71.5775 133.23 71.4747C133.132 71.0714 133.034 70.6681 132.935 70.2648C132.643 70.165 132.35 70.0652 132.049 69.9624C132.049 69.7627 132.049 69.5631 132.049 69.3574Z" fill="#CC243E"/>
<path d="M114.028 74.8027C114.223 74.9025 114.418 75.0024 114.618 75.1052C114.559 75.2664 114.499 75.4276 114.437 75.5937C113.819 77.3535 113.535 79.0125 113.381 80.871C113.357 81.1328 113.333 81.3947 113.308 81.6644C113.25 82.3008 113.195 82.9375 113.141 83.5743C113.044 83.5743 112.946 83.5743 112.846 83.5743C112.837 82.4842 112.832 81.3941 112.828 80.3039C112.825 79.9941 112.823 79.6843 112.82 79.3652C112.819 79.0679 112.818 78.7706 112.817 78.4643C112.816 78.1902 112.814 77.9162 112.812 77.6339C112.846 76.92 112.846 76.92 113.141 76.0126C113.336 76.0126 113.531 76.0126 113.732 76.0126C113.83 75.6134 113.927 75.2141 114.028 74.8027Z" fill="#D51533"/>
<path d="M16.542 65.4258C16.8344 65.5256 17.1269 65.6254 17.4282 65.7283C17.3544 66.5978 17.3544 66.5978 17.1328 67.5431C16.542 67.9022 16.542 67.9022 15.9512 68.148C15.8537 68.4474 15.7562 68.7469 15.6558 69.0554C15.3633 69.0554 15.0708 69.0554 14.7695 69.0554C14.9645 68.2569 15.1595 67.4584 15.3603 66.6357C15.5553 66.6357 15.7503 66.6357 15.9512 66.6357C16.1461 66.2364 16.3411 65.8371 16.542 65.4258Z" fill="#E70929"/>
<path d="M110.483 68.7539C111.653 68.7539 112.823 68.7539 114.028 68.7539C114.126 69.4526 114.223 70.1513 114.324 70.8712C114.206 70.7289 114.088 70.5866 113.967 70.4399C113.331 69.8677 112.879 69.764 112.053 69.6046C111.695 69.5327 111.695 69.5327 111.329 69.4593C111.148 69.4261 110.966 69.393 110.779 69.3588C110.681 70.1574 110.584 70.9559 110.483 71.7786C110.386 71.7786 110.288 71.7786 110.188 71.7786C110.151 69.4345 110.151 69.4345 110.483 68.7539Z" fill="#DB3E59"/>
<path d="M76.5112 78.1289C76.7143 78.6393 76.7143 78.6393 76.8066 79.3388C76.2952 80.4411 75.6851 81.3206 74.7388 82.061C73.8726 82.2092 73.029 82.1753 72.1539 82.1366C71.8026 82.1284 71.8026 82.1284 71.4442 82.1201C70.8683 82.1059 70.2925 82.0842 69.7168 82.061C69.7168 81.7616 69.7168 81.4621 69.7168 81.1536C69.9118 81.2534 70.1067 81.3532 70.3076 81.4561C71.8829 81.5788 73.3079 81.6059 74.7388 80.8511C75.0312 80.7513 75.3237 80.6515 75.625 80.5487C75.9747 79.8299 75.9747 79.8299 76.2158 79.0363C76.3133 78.7369 76.4108 78.4374 76.5112 78.1289Z" fill="#D72441"/>
<path d="M18.6102 59.0742C19.0001 59.174 19.39 59.2738 19.7918 59.3767C19.667 59.8254 19.5367 60.2725 19.4041 60.7189C19.3321 60.968 19.2601 61.2172 19.186 61.4739C19.0934 61.6801 19.0009 61.8864 18.9056 62.0989C18.6131 62.1987 18.3207 62.2985 18.0193 62.4014C17.6798 61.3267 17.6983 60.9496 18.1486 59.8871C18.3009 59.6189 18.4532 59.3506 18.6102 59.0742Z" fill="#EB0223"/>
<path d="M10.6348 63.3086C10.7322 63.608 10.8297 63.9075 10.9302 64.216C10.6377 64.3158 10.3453 64.4156 10.0439 64.5185C9.67645 65.1382 9.43601 65.7727 9.17617 66.4467C8.82201 67.3426 8.39807 68.1913 7.97607 69.0555C7.87859 69.355 7.7811 69.6544 7.68066 69.9629C7.48569 69.9629 7.29072 69.9629 7.08984 69.9629C7.54405 67.25 8.91957 65.3575 10.6348 63.3086Z" fill="#1F8F55"/>
<path d="M93.3501 69.359C92.4846 69.3442 92.4846 69.3442 91.6192 69.3294C90.9884 69.3355 90.9884 69.3355 90.4052 69.5197C89.6888 69.6889 89.1288 69.6276 88.402 69.5291C88.0478 69.4829 88.0478 69.4829 87.6865 69.4358C87.5083 69.4104 87.3301 69.3851 87.1465 69.359C88.9694 68.1146 91.5198 68.1096 93.3501 69.359Z" fill="#D51735"/>
<path d="M99.8477 83.5742C100.043 83.5742 100.238 83.5742 100.438 83.5742C100.438 83.7738 100.438 83.9735 100.438 84.1792C102.374 84.8706 104.31 84.9674 106.347 85.0866C106.347 85.2862 106.347 85.4858 106.347 85.6915C102.019 85.8879 102.019 85.8879 100.162 84.2926C99.8477 83.8767 99.8477 83.8767 99.8477 83.5742Z" fill="#DB4359"/>
<path d="M120.526 72.6855C120.624 72.8852 120.721 73.0848 120.822 73.2905C120.737 73.4589 120.651 73.6274 120.563 73.8009C120.127 74.7184 120.065 75.612 119.936 76.6176C119.838 76.7175 119.741 76.8173 119.64 76.9201C119.524 78.5554 119.668 80.1487 119.936 81.7596C118.913 80.7125 118.989 79.5266 118.957 78.0922C118.965 76.2916 119.204 74.0392 120.526 72.6855Z" fill="#D11B38"/>
<path d="M48.7414 72.6855C48.8389 72.6855 48.9364 72.6855 49.0368 72.6855C49.0265 73.1885 49.0265 73.1885 49.016 73.7017C49.0105 74.1443 49.0051 74.587 48.9999 75.0297C48.9949 75.2504 48.99 75.4711 48.9849 75.6984C48.9742 76.8955 49.062 77.6934 49.6276 78.7349C49.5301 79.0344 49.4326 79.3338 49.3322 79.6423C48.1999 77.8277 47.9915 76.3262 48.1506 74.1979C48.446 73.2716 48.446 73.2716 48.7414 72.6855Z" fill="#FCD5DB"/>
<path d="M74.4438 71.1738C74.7363 71.2736 75.0287 71.3735 75.3301 71.4763C75.3301 71.7757 75.3301 72.0752 75.3301 72.3837C75.7547 72.8943 75.7547 72.8943 76.2163 73.2911C76.1188 73.4907 76.0213 73.6904 75.9209 73.8961C75.7701 73.7475 75.6193 73.5989 75.4639 73.4459C74.475 72.8219 73.749 72.8992 72.5975 72.9319C72.2243 72.9401 71.8512 72.9483 71.4667 72.9567C71.1818 72.9673 70.897 72.9778 70.6035 72.9886C70.6035 72.789 70.6035 72.5894 70.6035 72.3837C71.4882 72.1198 72.2684 72.0485 73.1883 72.0623C73.4244 72.0651 73.6605 72.0678 73.9038 72.0706C74.082 72.0741 74.2602 72.0776 74.4438 72.0812C74.4438 71.7818 74.4438 71.4823 74.4438 71.1738Z" fill="#DC1B37"/>
<path d="M128.319 68.0904C128.574 68.0867 128.83 68.083 129.092 68.0792C129.339 68.0786 129.586 68.078 129.84 68.0774C130.178 68.0756 130.178 68.0756 130.523 68.0737C131.241 68.1561 131.721 68.3866 132.344 68.7521C132.344 68.9517 132.344 69.1513 132.344 69.357C132.058 69.2572 131.771 69.1574 131.476 69.0545C129.332 68.4316 127.136 68.7715 124.959 69.0545C124.959 68.8549 124.959 68.6553 124.959 68.4496C125.995 67.9192 127.178 68.0913 128.319 68.0904Z" fill="#FED9E0"/>
<path d="M20.6787 58.7715C20.6431 60.292 20.6061 61.2211 19.6263 62.42C19.3887 62.6134 19.1511 62.8068 18.9062 63.0061C19.1749 60.3015 19.1749 60.3015 19.7925 59.074C20.3833 58.7715 20.3833 58.7715 20.6787 58.7715Z" fill="#FCE5EB"/>
<path d="M131.162 73.8945C131.552 73.9943 131.942 74.0942 132.344 74.197C132.368 74.8206 132.385 75.4446 132.399 76.0685C132.409 76.4159 132.42 76.7633 132.43 77.1213C132.337 78.2109 132.074 78.7624 131.458 79.6414C131.36 79.4418 131.263 79.2422 131.162 79.0365C131.308 78.5873 131.308 78.5873 131.458 78.1291C131.485 77.6319 131.496 77.1336 131.494 76.6357C131.496 76.2479 131.496 76.2479 131.497 75.8523C131.46 75.1568 131.352 74.5611 131.162 73.8945Z" fill="#D81432"/>
<path d="M69.7158 68.1468C70.6327 68.1117 71.5495 68.0902 72.4668 68.0712C72.7271 68.0611 72.9874 68.0509 73.2555 68.0405C75.1894 68.0104 75.1894 68.0104 75.9506 68.7565C76.0378 68.9546 76.125 69.1526 76.2148 69.3567C75.9772 69.2569 75.7396 69.1571 75.4948 69.0542C73.3858 68.4481 71.2712 68.7752 69.125 69.0542C69.32 68.9544 69.5149 68.8546 69.7158 68.7518C69.7158 68.5521 69.7158 68.3525 69.7158 68.1468Z" fill="#FDD8DF"/>
<path d="M119.346 68.7534C119.346 69.6518 119.346 70.5501 119.346 71.4757C119.249 71.4757 119.151 71.4757 119.051 71.4757C118.953 70.777 118.856 70.0783 118.755 69.3584C117.146 69.6936 116.144 69.9936 114.915 71.1732C114.72 71.0734 114.525 70.9736 114.324 70.8707C114.692 70.5722 115.061 70.2766 115.432 69.9822C115.638 69.8173 115.843 69.6524 116.055 69.4824C117.136 68.7535 118.073 68.7172 119.346 68.7534Z" fill="#CD1936"/>
<path d="M16.5425 59.6797C16.64 59.6797 16.7374 59.6797 16.8379 59.6797C16.8201 60.1652 16.7938 60.6504 16.764 61.1353C16.7503 61.4055 16.7366 61.6757 16.7225 61.9541C16.4945 62.9042 16.1453 63.0928 15.3608 63.6118C14.9911 64.2419 14.9911 64.2419 14.77 64.8217C14.6725 64.622 14.575 64.4224 14.4746 64.2167C14.7481 63.3956 14.7481 63.3956 15.1577 62.4208C15.2906 62.0999 15.4235 61.779 15.5605 61.4484C15.9517 60.5871 15.9517 60.5871 16.5425 59.6797Z" fill="#DDF8EB"/>
<path d="M86.5547 85.0859C88.3094 85.0859 90.0641 85.0859 91.8721 85.0859C91.5766 85.6909 91.5766 85.6909 91.0643 85.8787C90.3119 86.0076 89.6067 86.0225 88.8441 86.0122C88.5806 86.0095 88.3171 86.0068 88.0456 86.004C87.846 86.0005 87.6465 85.997 87.4409 85.9933C87.4409 85.7937 87.4409 85.5941 87.4409 85.3884C87.1485 85.2886 86.856 85.1888 86.5547 85.0859Z" fill="#DD2B47"/>
<path d="M93.9409 69.9629C94.8271 70.2654 94.8271 70.2654 95.1722 70.803C95.2716 71.0186 95.3709 71.2342 95.4733 71.4563C95.575 71.6712 95.6767 71.886 95.7814 72.1073C96.0088 72.6851 96.0088 72.6851 96.0088 73.2901C93.9616 73.7392 93.9616 73.7392 91.873 74.1975C91.873 73.9978 91.873 73.7982 91.873 73.5925C93.4815 73.2931 93.4815 73.2931 95.1225 72.9876C94.9276 72.1891 94.7326 71.3905 94.5317 70.5678C94.3368 70.5678 94.1418 70.5678 93.9409 70.5678C93.9409 70.3682 93.9409 70.1686 93.9409 69.9629Z" fill="#CF223E"/>
<path d="M141.501 83.5742C141.599 83.5742 141.696 83.5742 141.797 83.5742C142.16 85.51 142.16 85.51 141.815 86.4288C141.712 86.5847 141.608 86.7407 141.501 86.9014C141.306 86.8016 141.112 86.7017 140.911 86.5989C140.911 86.2995 140.911 86 140.911 85.6915C139.643 85.6915 138.376 85.6915 137.07 85.6915C137.07 85.5917 137.07 85.4919 137.07 85.389C138.435 85.389 139.8 85.389 141.206 85.389C141.304 84.7901 141.401 84.1913 141.501 83.5742Z" fill="#FDDAE1"/>
<path d="M93.9395 76.6172C94.3294 76.6172 94.7193 76.6172 95.1211 76.6172C95.1211 76.9166 95.1211 77.2161 95.1211 77.5246C95.3161 77.5246 95.511 77.5246 95.7119 77.5246C96.4287 79.4002 96.2038 80.741 95.7119 82.6666C95.5169 82.6666 95.322 82.6666 95.1211 82.6666C95.1675 82.4938 95.214 82.3211 95.2619 82.1432C95.5718 80.7672 95.7413 79.3718 95.0865 78.087C94.7287 77.5779 94.3364 77.0948 93.9395 76.6172Z" fill="#FDD7DC"/>
<path d="M117.278 71.1738C117.765 71.5731 118.253 71.9723 118.755 72.3837C118.852 72.0843 118.95 71.7848 119.05 71.4763C119.05 71.9754 119.05 72.4744 119.05 72.9886C117.978 73.1883 116.906 73.3879 115.801 73.5936C115.801 73.394 115.801 73.1943 115.801 72.9886C115.99 72.8452 116.179 72.7017 116.373 72.5538C117.066 72.1087 117.066 72.1087 117.278 71.1738Z" fill="#DA0B2E"/>
<path d="M29.2461 59.9824C31.0241 60.9154 32.4974 61.9277 33.9726 63.3096C33.7777 63.5092 33.5827 63.7088 33.3818 63.9145C33.1929 63.7024 33.0041 63.4903 32.8095 63.2718C31.9085 62.336 30.863 61.6785 29.7758 60.9903C29.601 60.8573 29.4262 60.7243 29.2461 60.5874C29.2461 60.3877 29.2461 60.1881 29.2461 59.9824Z" fill="#208D55"/>
<path d="M97.1895 72.0801C97.2869 72.2797 97.3844 72.4793 97.4849 72.685C97.6734 72.6597 97.8619 72.6343 98.0561 72.6082C98.3002 72.5774 98.5443 72.5466 98.7957 72.5149C99.0391 72.4833 99.2824 72.4517 99.5331 72.4192C99.7346 72.4071 99.936 72.395 100.144 72.3825C100.439 72.685 100.439 72.685 100.468 73.2439C100.453 74.1743 100.453 74.1743 100.439 75.1048C100.244 75.1048 100.049 75.1048 99.8481 75.1048C99.8481 74.4061 99.8481 73.7074 99.8481 72.9875C98.9708 72.9875 98.0934 72.9875 97.1895 72.9875C97.1895 72.688 97.1895 72.3886 97.1895 72.0801Z" fill="#CF213D"/>
<path d="M113.142 83.5742C113.663 84.5083 113.733 84.8546 113.733 85.994C113.161 86.1641 113.161 86.1641 112.551 86.2964C112.454 86.1966 112.356 86.0968 112.256 85.994C111.66 85.9231 111.063 85.8689 110.465 85.8238C110.139 85.7985 109.812 85.7731 109.476 85.747C109.224 85.7287 108.971 85.7104 108.711 85.6915C108.711 85.5917 108.711 85.4919 108.711 85.389C110.173 85.389 111.635 85.389 113.142 85.389C113.142 84.7901 113.142 84.1913 113.142 83.5742Z" fill="#FDD9DF"/>
<path d="M134.115 81.1543C134.31 81.2541 134.505 81.3539 134.706 81.4568C134.327 81.9123 133.944 82.3656 133.561 82.8179C133.243 83.1969 133.243 83.1969 132.917 83.5835C132.728 83.78 132.538 83.9765 132.343 84.179C132.148 84.179 131.953 84.179 131.752 84.179C131.752 83.7797 131.752 83.3805 131.752 82.9691C132.142 82.9691 132.532 82.9691 132.934 82.9691C132.934 82.6697 132.934 82.3702 132.934 82.0617C133.129 82.0617 133.324 82.0617 133.524 82.0617C133.524 81.8621 133.524 81.6624 133.524 81.4568C133.719 81.357 133.914 81.2571 134.115 81.1543Z" fill="#D51C39"/>
<path d="M90.0991 79.6426C90.4891 79.7424 90.879 79.8422 91.2808 79.945C91.0592 81.3818 91.0592 81.3818 90.3945 82.0623C89.6003 82.144 88.8314 82.0888 88.0312 82.0623C88.7891 81.2864 89.3538 81.2939 90.3945 81.1549C90.492 80.8555 90.5895 80.556 90.6899 80.2475C90.495 80.2475 90.3 80.2475 90.0991 80.2475C90.0991 80.0479 90.0991 79.8483 90.0991 79.6426Z" fill="#FED2D9"/>
<path d="M100.735 65.125C101.125 65.2248 101.515 65.3246 101.916 65.4275C101.624 65.5273 101.332 65.6271 101.03 65.7299C100.835 66.7281 100.64 67.7262 100.439 68.7546C99.6596 68.7546 98.8797 68.7546 98.0762 68.7546C98.9624 68.1497 98.9624 68.1497 99.8486 67.8472C100.151 67.2129 100.151 67.2129 100.347 66.4672C100.421 66.2173 100.496 65.9674 100.572 65.7099C100.626 65.5169 100.68 65.3238 100.735 65.125Z" fill="#FEE0E6"/>
<path d="M33.9727 63.6113C35.1538 64.7199 35.9229 65.7622 36.6313 67.241C36.5339 67.4406 36.4364 67.6402 36.3359 67.8459C35.8485 67.7461 35.3611 67.6463 34.8589 67.5434C34.932 67.2752 35.0051 67.0069 35.0804 66.7305C35.261 65.6964 35.261 65.6964 34.5819 64.8968C34.3809 64.6722 34.1798 64.4477 33.9727 64.2163C33.9727 64.0166 33.9727 63.817 33.9727 63.6113Z" fill="#1F9055"/>
<path d="M59.081 64.8197C58.7886 64.9694 58.7886 64.9694 58.4902 65.1221C58.1978 65.0223 57.9053 64.9225 57.604 64.8197C56.9465 64.7518 56.2877 64.6963 55.6284 64.6495C55.28 64.6242 54.9316 64.5989 54.5726 64.5727C54.3056 64.5544 54.0387 64.5361 53.7637 64.5172C55.7571 63.1565 57.1866 63.6458 59.081 64.8197Z" fill="#FAB2C1"/>
<path d="M124.072 85.6914C125.827 85.6914 127.582 85.6914 129.39 85.6914C129.292 85.891 129.195 86.0907 129.094 86.2963C128.342 86.4429 128.342 86.4429 127.396 86.5232C126.932 86.5676 126.932 86.5676 126.459 86.613C125.515 86.5983 124.916 86.41 124.072 85.9939C124.072 85.8941 124.072 85.7942 124.072 85.6914Z" fill="#FEE0E6"/>
<path d="M62.9214 68.1484C63.4088 68.2483 63.8962 68.3481 64.3984 68.4509C64.106 68.6006 64.106 68.6006 63.8076 68.7534C63.8076 68.953 63.8076 69.1526 63.8076 69.3583C64.0026 69.4581 64.1976 69.5579 64.3984 69.6608C64.3984 70.1599 64.3984 70.6589 64.3984 71.1731C63.8135 71.3728 63.2286 71.5724 62.626 71.7781C62.431 71.5784 62.236 71.3788 62.0352 71.1731C63.0587 71.0234 63.0587 71.0234 64.103 70.8707C63.7131 69.9723 63.3231 69.074 62.9214 68.1484Z" fill="#FCD9DE"/>
<path d="M73.853 85.0859C74.048 85.1858 74.243 85.2856 74.4438 85.3884C73.2246 86.2963 72.3913 86.405 70.8989 86.2958C70.4039 86.2095 69.9098 86.1145 69.4219 85.9933C69.4219 85.8935 69.4219 85.7937 69.4219 85.6909C69.6675 85.6726 69.9131 85.6542 70.1662 85.6353C70.6477 85.5973 70.6477 85.5973 71.1389 85.5585C71.4577 85.534 71.7764 85.5094 72.1048 85.4841C72.9845 85.418 72.9845 85.418 73.853 85.0859Z" fill="#FBB4BE"/>
<path d="M91.2822 79.9453C91.3797 79.9453 91.4772 79.9453 91.5776 79.9453C91.5776 80.644 91.5776 81.3427 91.5776 82.0626C90.7022 82.3614 90.1091 82.4056 89.1959 82.4029C88.8069 82.404 88.8069 82.404 88.4101 82.4052C87.7373 82.3651 87.7373 82.3651 87.1465 82.0626C87.244 81.863 87.3415 81.6633 87.4419 81.4577C87.6369 81.5575 87.8318 81.6573 88.0327 81.7601C88.5981 81.8196 88.5981 81.8196 89.2143 81.8168C89.4215 81.8211 89.6287 81.8254 89.8421 81.8298C90.4684 81.8101 90.4684 81.8101 90.9868 81.1552C91.1766 80.5295 91.1766 80.5295 91.2822 79.9453Z" fill="#D31A39"/>
<path d="M11.8153 70.2656C11.9128 70.2656 12.0103 70.2656 12.1107 70.2656C12.1684 72.097 12.1684 72.097 12.1107 72.6854C11.9157 72.885 11.7208 73.0846 11.5199 73.2903C11.384 73.9565 11.384 73.9565 11.3353 74.6892C11.3132 74.9364 11.2911 75.1836 11.2683 75.4383C11.2466 75.7226 11.2466 75.7226 11.2245 76.0125C11.127 76.0125 11.0295 76.0125 10.9291 76.0125C10.8129 73.9023 11.0381 72.2267 11.8153 70.2656Z" fill="#C5EDD7"/>
<path d="M104.28 65.125C104.378 65.125 104.475 65.125 104.576 65.125C104.673 66.5224 104.771 67.9198 104.871 69.3596C104.481 69.4594 104.091 69.5592 103.689 69.662C103.871 68.147 104.065 66.6354 104.28 65.125Z" fill="#E10728"/>
<path d="M55.833 68.1467C55.833 68.3464 55.833 68.546 55.833 68.7517C54.4682 68.9513 53.1034 69.1509 51.6973 69.3566C51.6973 69.157 51.6973 68.9574 51.6973 68.7517C53.0705 68.026 54.3296 68.0864 55.833 68.1467Z" fill="#D81030"/>
<path d="M16.8389 59.6787C16.4489 60.4772 16.059 61.2757 15.6572 62.0984C15.5597 62.0984 15.4623 62.0984 15.3618 62.0984C15.3618 61.5993 15.3618 61.1003 15.3618 60.5861C14.8744 60.6859 14.387 60.7857 13.8848 60.8885C14.4779 59.674 15.6341 59.2675 16.8389 59.6787Z" fill="#349463"/>
<path d="M20.0869 58.4688C19.9894 58.7682 19.8919 59.0676 19.7915 59.3762C19.4016 59.2763 19.0116 59.1765 18.6099 59.0737C18.3174 60.0718 18.0249 61.07 17.7236 62.0984C17.5287 62.0984 17.3337 62.0984 17.1328 62.0984C17.258 61.6058 17.3882 61.1145 17.5205 60.6238C17.5925 60.3501 17.6645 60.0764 17.7386 59.7944C18.2323 58.5256 18.8076 58.4688 20.0869 58.4688Z" fill="#CE2B47"/>
<path d="M120.822 81.1543C121.017 81.1543 121.212 81.1543 121.413 81.1543C121.708 82.0617 121.708 82.0617 121.431 82.7234C121.276 82.9947 121.276 82.9947 121.117 83.2716C121.41 83.3714 121.702 83.4712 122.003 83.574C121.613 83.574 121.224 83.574 120.822 83.574C119.936 82.6018 119.936 82.6018 119.936 81.7592C120.131 81.7592 120.325 81.7592 120.526 81.7592C120.624 81.5596 120.721 81.36 120.822 81.1543Z" fill="#DE0F2E"/>
<path d="M94.8271 82.9688C95.0221 83.368 95.2171 83.7673 95.418 84.1786C94.9305 84.2784 94.4431 84.3783 93.9409 84.4811C93.9409 84.6807 93.9409 84.8804 93.9409 85.086C93.2585 85.1858 92.5761 85.2857 91.873 85.3885C92.1655 85.1889 92.458 84.9892 92.7593 84.7836C93.1261 84.4731 93.4891 84.1578 93.8486 83.8383C94.0325 83.6754 94.2164 83.5124 94.4059 83.3445C94.5449 83.2205 94.6839 83.0965 94.8271 82.9688Z" fill="#FED8DE"/>
<path d="M33.6758 86.2949C33.7733 86.5944 33.8707 86.8938 33.9712 87.2023C33.5559 87.9632 33.2744 88.3358 32.4757 88.658C31.9033 88.7147 31.9033 88.7147 31.3125 88.4122C32.0924 87.7135 32.8723 87.0148 33.6758 86.2949Z" fill="#DBF9E9"/>
<path d="M6.79492 79.6426C6.98989 79.6426 7.18486 79.6426 7.38574 79.6426C7.44058 79.9327 7.44058 79.9327 7.49652 80.2286C7.58791 80.5374 7.58791 80.5374 7.68115 80.8525C7.87612 80.9523 8.07109 81.0521 8.27197 81.1549C8.48671 81.7535 8.685 82.3586 8.86279 82.9697C8.57033 83.1195 8.57033 83.1195 8.27197 83.2722C8.02436 82.7815 7.77851 82.2898 7.53344 81.7977C7.39636 81.524 7.25927 81.2502 7.11803 80.9682C6.79492 80.2475 6.79492 80.2475 6.79492 79.6426Z" fill="#2E9962"/>
<path d="M119.936 82.3652C120.275 82.6539 120.613 82.944 120.951 83.2348C121.14 83.3963 121.328 83.5577 121.522 83.724C122.003 84.18 122.003 84.18 122.299 84.785C121.501 84.6745 120.945 84.5737 120.286 84.0855C119.936 83.5751 119.936 83.5751 119.936 82.3652Z" fill="#FCD6DA"/>
<path d="M92.4639 68.7532C92.7563 68.9528 93.0488 69.1524 93.3501 69.3581C92.8017 69.3487 92.8017 69.3487 92.2423 69.3392C91.3815 69.3376 90.6295 69.3792 89.8052 69.6606C89.7077 69.4609 89.6102 69.2613 89.5098 69.0556C90.5525 68.6997 91.3692 68.6931 92.4639 68.7532Z" fill="#DE102E"/>
<path d="M61.4453 66.9375C62.4134 67.2561 62.8056 67.7353 63.3101 68.6011C63.5568 69.1251 63.5568 69.1251 63.8086 69.6597C63.7111 69.8594 63.6136 70.059 63.5132 70.2647C62.6269 68.8279 62.6269 68.8279 62.6269 68.1474C62.237 68.0476 61.8471 67.9477 61.4453 67.8449C61.4453 67.5455 61.4453 67.246 61.4453 66.9375Z" fill="#D62C4B"/>
<path d="M16.8384 61.7949C17.1338 62.3999 17.1338 62.3999 16.9688 62.9883C16.8831 63.2058 16.7974 63.4234 16.7091 63.6475C16.6242 63.8667 16.5393 64.0858 16.4518 64.3116C16.3844 64.4792 16.317 64.6469 16.2476 64.8196C15.9551 64.4204 15.6626 64.0211 15.3613 63.6097C15.5563 63.3103 15.7513 63.0108 15.9521 62.7023C16.1471 62.7023 16.3421 62.7023 16.543 62.7023C16.6404 62.4029 16.7379 62.1034 16.8384 61.7949Z" fill="#FBD0D7"/>
<path d="M30.7227 87.5059C31.3076 87.5059 31.8925 87.5059 32.4951 87.5059C31.5716 88.5325 30.851 89.2016 29.541 89.6231C29.541 89.4235 29.541 89.2239 29.541 89.0182C29.931 88.9184 30.3209 88.8186 30.7227 88.7157C30.7227 88.3165 30.7227 87.9172 30.7227 87.5059Z" fill="#25945B"/>
<path d="M95.1226 82.0625C95.0195 83.0472 94.8208 83.278 94.0702 83.9529C93.8325 84.1276 93.5949 84.3023 93.3501 84.4823C93.2526 84.1828 93.1551 83.8834 93.0547 83.5748C93.2497 83.5748 93.4446 83.5748 93.6455 83.5748C93.6455 83.3752 93.6455 83.1756 93.6455 82.9699C94.3954 82.0625 94.3954 82.0625 95.1226 82.0625Z" fill="#D91132"/>
<path d="M103.689 80.8523C104.12 80.8278 104.551 80.8102 104.982 80.7956C105.222 80.785 105.462 80.7745 105.709 80.7637C105.92 80.7929 106.131 80.8222 106.348 80.8523C106.543 81.1517 106.738 81.4512 106.939 81.7597C104.704 81.8722 104.704 81.8722 104.055 81.3024C103.935 81.1539 103.814 81.0053 103.689 80.8523Z" fill="#F9C5CB"/>
<path d="M86.2598 79.9453C86.3572 80.2448 86.4547 80.5442 86.5552 80.8527C86.2627 80.7529 85.9703 80.6531 85.6689 80.5503C85.3826 80.7062 85.0962 80.8622 84.8012 81.0229C84.5026 81.1663 84.2041 81.3098 83.8965 81.4577C83.2491 81.1824 83.2491 81.1824 82.7148 80.8527C83.1389 80.6998 83.5637 80.549 83.9888 80.399C84.2253 80.3148 84.4618 80.2306 84.7054 80.1438C85.3735 79.9453 85.3735 79.9453 86.2598 79.9453Z" fill="#D62D48"/>
<path d="M135.594 78.7344C135.691 78.7344 135.789 78.7344 135.889 78.7344C135.998 80.7074 135.998 80.7074 135.446 81.4377C135.3 81.5437 135.154 81.6498 135.003 81.7591C134.808 81.6593 134.613 81.5594 134.412 81.4566C134.802 80.5583 135.192 79.6599 135.594 78.7344Z" fill="#FED9DE"/>
<path d="M87.145 69.3574C87.145 69.5571 87.145 69.7567 87.145 69.9624C86.8526 70.162 86.5601 70.3616 86.2588 70.5673C86.1613 70.7669 86.0638 70.9666 85.9634 71.1722C85.4778 71.3905 84.9854 71.5937 84.4863 71.7772C84.9372 70.602 85.8163 69.3574 87.145 69.3574Z" fill="#D01430"/>
<path d="M119.345 68.148C118.31 68.7418 117.238 69.043 116.096 69.3579C116.096 69.1583 116.096 68.9586 116.096 68.753C117.25 67.814 117.937 67.7791 119.345 68.148Z" fill="#FCE5E7"/>
<path d="M8.27197 65.4258C8.4566 65.9929 8.4566 65.9929 8.56738 66.6357C8.37241 66.8353 8.17744 67.0349 7.97656 67.2406C7.76767 67.7396 7.56906 68.2435 7.38574 68.7529C7.07187 68.1858 7.07187 68.1858 6.79492 67.5431C6.89241 67.3434 6.98989 67.1438 7.09033 66.9381C7.2853 66.9381 7.48027 66.9381 7.68115 66.9381C7.68115 66.7385 7.68115 66.5389 7.68115 66.3332C7.87612 66.3332 8.07109 66.3332 8.27197 66.3332C8.27197 66.0337 8.27197 65.7343 8.27197 65.4258Z" fill="#DBF8E8"/>
<path d="M15.3603 60.5859C15.3603 61.085 15.3603 61.5841 15.3603 62.0983C15.0679 62.0983 14.7754 62.0983 14.4741 62.0983C14.4741 61.8987 14.4741 61.699 14.4741 61.4933C14.1817 61.4933 13.8892 61.4933 13.5879 61.4933C13.5879 61.2937 13.5879 61.0941 13.5879 60.8884C14.4741 60.5859 14.4741 60.5859 15.3603 60.5859Z" fill="#078E45"/>
<path d="M12.1108 85.9941C12.3058 86.094 12.5008 86.1938 12.7017 86.2966C12.7017 86.8955 12.7017 87.4944 12.7017 88.1114C11.9631 87.6955 11.9631 87.6955 11.2246 87.204C11.2246 87.0044 11.2246 86.8048 11.2246 86.5991C11.5171 86.3994 11.8095 86.1998 12.1108 85.9941Z" fill="#219858"/>
<path d="M90.9853 84.1797C91.7652 84.2795 92.5451 84.3793 93.3486 84.4822C92.7578 85.0871 92.7578 85.0871 92.1831 85.1462C91.5869 85.1265 90.9907 85.1068 90.3945 85.0871C90.5895 84.7877 90.7845 84.4882 90.9853 84.1797Z" fill="#E10B2F"/>
<path d="M130.866 79.6426C130.964 79.6426 131.061 79.6426 131.162 79.6426C131.162 80.1417 131.162 80.6407 131.162 81.1549C130.479 81.2547 129.797 81.3546 129.094 81.4574C129.685 80.8525 130.275 80.2475 130.866 79.6426Z" fill="#DA1634"/>
<path d="M58.4917 78.1289C60.1903 78.6582 60.1903 78.6582 60.855 79.3388C59.7718 79.3388 58.6886 79.3388 57.6055 79.3388C57.8979 78.9395 58.1904 78.5403 58.4917 78.1289Z" fill="#D01E3B"/>
<path d="M15.0664 75.7096C15.8788 75.615 15.8788 75.615 16.8389 75.7096C17.5405 76.4657 17.5405 76.4657 18.0205 77.2219C16.6168 77.0912 15.9763 76.8203 15.0664 75.7096Z" fill="#DA2542"/>
<path d="M131.162 73.8945C131.552 73.9943 131.942 74.0942 132.344 74.197C132.246 75.295 132.149 76.3929 132.048 77.5242C131.951 77.5242 131.853 77.5242 131.753 77.5242C131.558 76.3264 131.363 75.1286 131.162 73.8945Z" fill="#DA2942"/>
<path d="M123.186 70.2656C123.13 70.8139 123.13 70.8139 122.89 71.4755C122.17 72.0237 122.17 72.0237 121.413 72.3829C121.218 72.2831 121.023 72.1833 120.822 72.0804C121.104 71.7762 121.387 71.4741 121.672 71.173C121.829 71.0046 121.987 70.8362 122.149 70.6626C122.595 70.2656 122.595 70.2656 123.186 70.2656Z" fill="#DA1B3B"/>
<path d="M66.4668 84.4824C67.9438 85.0874 67.9438 85.0874 69.4209 85.6923C68.6334 85.9909 68.2684 86.0031 67.4453 85.7679C66.7622 85.3898 66.7622 85.3898 66.4668 84.4824Z" fill="#FEDDE4"/>
<path d="M83.6001 73.291C83.6976 73.291 83.7951 73.291 83.8955 73.291C83.91 73.477 83.9244 73.663 83.9394 73.8546C83.9614 74.0991 83.9835 74.3435 84.0063 74.5954C84.0268 74.8375 84.0474 75.0797 84.0686 75.3291C84.1601 76.0956 84.1601 76.0956 84.7817 76.9206C84.0506 76.6212 84.0506 76.6212 83.3047 76.3157C83.4022 75.3176 83.4997 74.3194 83.6001 73.291Z" fill="#FDB1BE"/>
<path d="M55.832 68.7539C56.6119 68.7539 57.3918 68.7539 58.1953 68.7539C58.2928 69.253 58.3903 69.7521 58.4907 70.2663C57.1747 69.6674 57.1747 69.6674 55.832 69.0564C55.832 68.9566 55.832 68.8567 55.832 68.7539Z" fill="#DC1D3B"/>
<path d="M35.7451 83.5742C35.8426 83.8737 35.9401 84.1731 36.0405 84.4816C35.4682 85.4457 35.4682 85.4457 34.8589 86.2964C34.5664 86.1966 34.274 86.0968 33.9727 85.994C34.5576 85.1955 35.1425 84.3969 35.7451 83.5742Z" fill="#D5F6E4"/>
<path d="M76.2158 83.875C76.2158 84.3741 76.2158 84.8731 76.2158 85.3873C75.3384 85.2376 75.3384 85.2376 74.4434 85.0849C75.5511 83.875 75.5511 83.875 76.2158 83.875Z" fill="#FDCFD7"/>
<path d="M99.8477 83.5742C100.043 83.5742 100.238 83.5742 100.438 83.5742C100.438 83.7738 100.438 83.9735 100.438 84.1792C101.121 84.3788 101.803 84.5784 102.506 84.7841C102.409 84.9837 102.311 85.1834 102.211 85.389C101.22 85.0325 100.523 84.7144 99.8477 83.8767C99.8477 83.7769 99.8477 83.6771 99.8477 83.5742Z" fill="#D5223D"/>
<path d="M59.0815 82.9688C59.4715 83.0686 59.8614 83.1684 60.2632 83.2712C58.86 84.4811 58.86 84.4811 58.1953 84.4811C58.1953 84.1817 58.1953 83.8822 58.1953 83.5737C58.4878 83.5737 58.7802 83.5737 59.0815 83.5737C59.0815 83.3741 59.0815 83.1744 59.0815 82.9688Z" fill="#D41130"/>
<path d="M81.8281 81.1543C82.7144 81.4568 82.7144 81.4568 83.3052 82.3642C83.0127 82.8133 83.0127 82.8133 82.7144 83.2716C81.8281 81.8349 81.8281 81.8349 81.8281 81.1543Z" fill="#D82540"/>
<path d="M57.0142 80.2467C55.7053 81.1774 55.7053 81.1774 54.854 81.0596C54.6072 80.9567 54.6072 80.9567 54.3555 80.8516C54.453 80.652 54.5504 80.4524 54.6509 80.2467C55.621 79.9591 56.0384 79.9137 57.0142 80.2467Z" fill="#FDD9E0"/>
<path d="M132.049 69.3574C133.784 70.4539 133.784 70.4539 134.117 71.4747C133.824 71.4747 133.532 71.4747 133.23 71.4747C133.2 71.2813 133.17 71.0879 133.138 70.8887C133.071 70.6828 133.004 70.4769 132.935 70.2648C132.643 70.165 132.35 70.0652 132.049 69.9624C132.049 69.7627 132.049 69.5631 132.049 69.3574Z" fill="#D61733"/>
<path d="M18.6113 59.0742C19.0013 59.174 19.3912 59.2738 19.793 59.3767C19.598 60.1752 19.403 60.9737 19.2021 61.7964C19.1047 61.7964 19.0072 61.7964 18.9067 61.7964C18.9128 61.5157 18.9189 61.235 18.9252 60.9457C18.9533 59.9747 18.9533 59.9747 18.6113 59.0742Z" fill="#DD1533"/>
</svg>
